<svg width="28" height="28" viewBox="0 0 28 28" fill="none" xmlns="http://www.w3.org/2000/svg">
<path d="M25.4397 11.7151H24.5V11.6667H14V16.3333H20.5934C19.6315 19.0499 17.0467 21 14 21C10.1342 21 6.99998 17.8658 6.99998 14C6.99998 10.1343 10.1342 7 14 7C15.7844 7 17.4078 7.67317 18.6439 8.77275L21.9438 5.47284C19.8601 3.53092 17.073 2.33334 14 2.33334C7.55706 2.33334 2.33331 7.55709 2.33331 14C2.33331 20.4429 7.55706 25.6667 14 25.6667C20.4429 25.6667 25.6666 20.4429 25.6666 14C25.6666 13.2178 25.5861 12.4542 25.4397 11.7151Z" fill="#FFC107"/>
<path d="M3.67853 8.56975L7.51161 11.3808C8.54878 8.813 11.0606 7 14 7C15.7844 7 17.4079 7.67317 18.6439 8.77275L21.9439 5.47284C19.8602 3.53092 17.073 2.33334 14 2.33334C9.51886 2.33334 5.63269 4.86325 3.67853 8.56975Z" fill="#FF3D00"/>
<path d="M14 25.6667C17.0135 25.6667 19.7517 24.5134 21.8219 22.638L18.2111 19.5825C17.0004 20.5032 15.521 21.0012 14 21C10.9655 21 8.38894 19.0651 7.41827 16.3649L3.61377 19.2961C5.5446 23.0744 9.46577 25.6667 14 25.6667Z" fill="#4CAF50"/>
<path d="M25.4398 11.7151H24.5V11.6667H14V16.3333H20.5934C20.1333 17.6262 19.3045 18.756 18.2093 19.5831L18.2111 19.5819L21.8219 22.6374C21.5664 22.8696 25.6667 19.8333 25.6667 14C25.6667 13.2177 25.5862 12.4542 25.4398 11.7151Z" fill="#1976D2"/>
</svg>
