<svg width="250" height="188" viewBox="0 0 250 188" fill="none" xmlns="http://www.w3.org/2000/svg">
<g opacity="0.8" clip-path="url(#clip0_208_1098)">
<path d="M230.937 68.0125L218.8 64.075C217.606 63.6875 216.712 62.0625 216.819 60.4625L219.169 24.7687C219.287 22.075 222.294 21.3937 223.481 21.7875L235.625 25.725C236.819 26.1062 237.706 27.7312 237.606 29.3312L235.256 65.0313C235.15 66.625 232.187 68.5813 230.937 68.0125Z" fill="#0058C3"/>
<path d="M230.937 68.0125L218.8 64.075C217.606 63.6875 216.712 62.0625 216.819 60.4625L219.169 24.7687C219.275 23.1687 220.337 22.1812 221.531 22.5687L233.669 26.5062C234.862 26.8875 235.756 28.5125 235.65 30.1125L233.3 65.8125C233.2 67.4062 232.131 68.4 230.937 68.0125Z" fill="#3175DE"/>
<path d="M234.819 30.125L232.5 65C232.419 66.1812 231.637 66.9187 230.762 66.6312L219.106 62.8812C218.225 62.6 217.575 61.4 217.65 60.2125L220 25.3062C220.075 24.125 220.856 23.3875 221.737 23.675L233.394 27.425C234.237 27.7375 234.894 28.9375 234.819 30.125Z" fill="#F2FEFF"/>
<path d="M229.881 27.65L225 26.0688C224.785 25.9568 224.61 25.7817 224.498 25.5671C224.387 25.3525 224.343 25.1087 224.375 24.8688V24.7188C224.412 24.1875 224.762 23.8563 225.162 23.9875L230 25.5688C230.22 25.676 230.402 25.8491 230.519 26.0641C230.637 26.2791 230.684 26.5254 230.656 26.7688V26.9188C230.625 27.45 230.281 27.7813 229.881 27.65Z" fill="#3175DE"/>
<path d="M150.156 66.7562C150.156 66.7562 136.75 90.6562 131.706 100.85C130.85 102.581 157.162 107.475 150.381 113.319C143.6 119.162 113.55 115.512 111.794 101.8C110.425 91.0937 130.719 58.05 136.1 57.0562C141.481 56.0625 150.156 66.7562 150.156 66.7562Z" fill="#FFAB40"/>
<path d="M207.981 351.956C204.625 347.288 196.106 343.75 196.106 343.75C196.106 343.75 205.644 274.719 198.456 212.388C194.706 179.663 179.137 138.888 176.312 132.85C166.406 134.475 125.1 125.669 119.912 125.25C116.625 130.756 110.212 138.775 107.831 154.625C104.081 179.625 118.219 218.319 119.15 238.375C119.406 243.925 127.006 342 127.006 342C127.212 343.302 127.174 344.631 126.894 345.919C126.319 348.631 125.456 353.356 126.362 353.869C132.256 357.175 158.15 356.619 154.794 351.95C151.437 347.281 142.919 343.744 142.919 343.744C142.919 343.744 159.906 228.119 149.169 195.225C157.131 206.419 164.169 231.044 164.925 240.606C166.737 263.731 180.137 342 180.137 342C180.345 343.302 180.309 344.63 180.031 345.919C179.456 348.631 178.594 353.356 179.5 353.869C185.444 357.188 211.337 356.625 207.981 351.956Z" fill="#FFAB40"/>
<path d="M157.394 69.2125C157.394 69.2125 161.4 91.7938 154.812 100.888C148.225 109.981 141.925 106.081 137.994 105.363C134.062 104.644 134.556 106.462 130.944 104.156C127.331 101.85 115.15 92.9063 113.65 87.7063C112.775 84.6813 120.05 70 128.025 63.7813C134.644 58.5813 154.537 58.0563 157.394 69.2125Z" fill="#D8E5FC"/>
<path d="M208.281 320.994C208.906 294.069 206.525 256.7 201.856 216.225C198.106 183.494 179.15 138.888 176.325 132.85C166.419 134.475 125.112 125.669 119.925 125.25C116.637 130.756 110.225 138.775 107.844 154.625C104.094 179.625 114.55 293.094 108.244 321.613C124.25 327.775 144.012 327.344 150.437 320.988C154.762 285.569 156.931 218.919 149.219 195.225C157.181 206.425 156.75 229.213 157.5 238.75C158.75 254.319 163.75 295 162.256 322.906C179.156 333.125 205.281 327.019 208.281 320.994Z" fill="#4873CA"/>
<path d="M148.081 54.5125C148.081 54.5125 149.431 46.0937 150.331 42.6375C151.112 39.6375 152.162 38.125 153.65 37.4187C156.85 35.9062 158.894 55.8375 157.4 56.6562C155.906 57.475 148.081 54.5125 148.081 54.5125Z" fill="#FFF5F5"/>
<path d="M159.906 28.8625C159.906 28.8625 163.031 35.1563 163.868 38.7063C164.706 42.2563 163.012 46.475 159.618 47.625C157.231 48.4313 151 45.3375 151.431 40.5375C151.862 35.7375 159.906 28.8625 159.906 28.8625Z" fill="#FFF5F5"/>
<path d="M160.312 46.0563C157.931 46.875 151.7 43.75 152.131 38.975C152.157 38.7638 152.199 38.5549 152.256 38.35C151.807 39.0059 151.524 39.7608 151.431 40.55C151 45.35 157.231 48.4438 159.618 47.6375C160.584 47.2718 161.45 46.6858 162.149 45.9263C162.847 45.1668 163.359 44.2547 163.643 43.2625C162.909 44.5675 161.725 45.5606 160.312 46.0563Z" fill="#FFF5F5"/>
<path d="M176.325 132.85C174.2 133.2 170.625 133.063 166.275 132.638C162.962 138.619 160.85 144.969 161.787 150.763C164.75 168.95 180.237 238.569 184.137 250.806C187.8 262.313 175.169 306.7 175.65 327.681C190.419 330.181 206.006 325.563 208.281 320.994C208.906 294.069 206.525 256.7 201.856 216.225C198.081 183.494 179.15 138.888 176.325 132.85Z" fill="#1E4F8E"/>
<path d="M178.069 136.994L174.287 122.45C173.324 115.11 174.532 107.648 177.762 100.987C182.819 90.675 188.644 71.825 178.756 62.9062C165.631 51.0312 139.269 48.3562 129.7 69.9375C122.15 86.9812 120.65 104.281 116.131 126.1C114.681 133.125 132.5 139.8 145.625 140.5C168.881 141.737 178.069 136.994 178.069 136.994Z" fill="#F2FEFF"/>
<path d="M174.288 122.45C173.324 115.108 174.532 107.645 177.763 100.981C182.825 90.675 188.65 71.8187 178.756 62.9062C175.375 59.8562 173.969 63.2375 169.044 61.5562C169.669 63.4312 167.169 60.175 167.438 63.7C167.956 70.9625 158.356 95.2312 159.263 116.906C159.594 124.844 160.231 133.125 160.9 140.444C173 139.6 178.069 136.994 178.069 136.994L174.288 122.45Z" fill="#D8E5FC"/>
<path d="M163.65 26.05C163.307 24.6081 162.505 23.3169 161.364 22.371C160.223 21.4251 158.805 20.8759 157.325 20.8062C153.994 20.6937 151.019 20.2875 144.663 25.1812C139.913 28.8188 141.081 44.5563 149.256 47.7688C152.862 49.1938 157.631 42.2875 158.562 40.2687C159.787 37.2224 160.627 34.0353 161.062 30.7812L162.837 32.6875C162.837 32.6875 164.812 30.1187 163.65 26.05Z" fill="#144AAF"/>
<path d="M159.875 40.1937C159.964 39.6896 159.905 39.1705 159.706 38.6991C159.506 38.2278 159.174 37.8243 158.75 37.5375C157.281 36.6687 156.369 38.5625 157.5 41.225C158.631 43.8875 159.856 43.0625 159.875 40.1937Z" fill="#FFF5F5"/>
<path d="M172.831 61.875C172.831 61.875 196.581 84.1688 206.95 95.3313C207.268 95.675 225.668 60.875 230.231 72.0813C234.793 83.2875 217.975 124.881 200.556 120.8C192.056 118.806 176.1 102.175 165.556 88.2125C159.218 79.8438 155.95 74.1438 156.268 71.4438C157.093 64.2125 172.831 61.875 172.831 61.875Z" fill="#FFF5F5"/>
<path d="M152.181 35.4563C147.975 35.4 144.237 33.225 141.969 31.5375C141.344 37.5688 143.687 45.5625 149.256 47.75C152.862 49.175 157.631 42.2688 158.562 40.25C159.289 38.4515 159.878 36.6003 160.325 34.7125C157.644 35.247 154.914 35.4963 152.181 35.4563Z" fill="#4873CA"/>
<path d="M181.662 106.956C183.657 105.754 185.571 104.425 187.393 102.975C190.469 100.3 193.141 97.1922 195.325 93.75L169.943 93.5562C173.525 97.9312 177.537 102.5 181.662 106.956Z" fill="#FFC107"/>
<path d="M224.637 69.525C224.637 69.525 224.706 64.525 224.487 63.1375C224.268 61.75 223.731 54.2063 225.112 54.2063C227.668 54.2063 227.487 60.025 228.418 61.4875C228.981 62.3625 231.787 61.1437 234.043 58.0375C235.037 56.6688 235.956 52.2938 236.237 52.0625C236.687 51.6938 237.337 51.9437 237.868 52.2937C239.381 53.3 239.431 58.2 240.306 59.7062C241.181 61.2125 241.643 64.15 237.806 70.0062C233.968 75.8625 223.275 79.9625 224.637 69.525Z" fill="#FFF5F5"/>
<path d="M175.2 58.8938C175.2 58.8938 198.4 68.8938 200.769 79.875C203.137 90.8562 196.025 92.9312 192.856 95.375C189.687 97.8187 191.387 98.6687 187.231 99.8125C183.075 100.956 178.287 104.812 175.15 104.569C172.012 104.325 157.594 83.125 155.244 75.0375C152.894 66.95 165 53.5688 175.2 58.8938Z" fill="#F2FEFF"/>
<path d="M144.431 28.8625C144.431 28.8625 136.306 23.6375 129.669 28.8625C123.031 34.0875 127.244 35.9562 127.244 43.8312C127.244 51.7062 114.794 49.075 115.281 55.625C115.769 62.175 129.825 61.5562 130.956 68.3437C132.087 75.1312 119.35 73.55 123.531 79.7C127.712 85.85 145.187 81.9687 147.05 70.3875C148.912 58.8062 138.881 55.0062 142.6 53.025C146.319 51.0437 149.5 29.9437 144.431 28.8625Z" fill="#144AAF"/>
<path d="M71.2503 91.35C71.2503 91.35 22.0565 134.631 33.2628 147.713C44.469 160.794 72.6378 135.65 78.219 128.569C83.8003 121.488 71.2503 91.35 71.2503 91.35Z" fill="#D8E5FC"/>
<path d="M146 167.5C147.65 155.188 147.15 125.194 137.494 112.781C127.838 100.369 90.619 100.594 83.9252 123.356C77.2315 146.119 34.019 144.95 39.3253 189.106C42.5565 216.031 137.181 233.425 146 167.5Z" fill="#1E4F8E"/>
<path d="M137.288 132.4C137.288 132.4 140.15 153.956 136.875 159.987C133.6 166.019 72.2129 206.375 60.8316 202.581C49.4504 198.787 40.3129 192.925 41.6941 183.269C43.0754 173.613 48.7504 157.75 63.2504 151.025C77.7504 144.3 91.5316 130.731 92.8004 121.881C95.1441 105.544 133.838 99.125 137.288 132.4Z" fill="#3269A5"/>
<path d="M73.9252 109.688C72.7218 107.82 70.873 106.46 68.7314 105.869C68.7314 105.869 69.9002 124.863 69.7877 129.113C69.7127 131.944 69.7377 135.125 69.7877 136.938C72.8348 134.395 75.6577 131.595 78.2252 128.569C79.1127 127.431 79.5377 125.706 79.6314 123.606C77.5002 117.819 74.9564 111.331 73.9252 109.688Z" fill="#98BDFF"/>
<path d="M69.1875 94.45C71.3438 87.1125 87.875 85.1188 101.006 85.7C109.131 86.0438 119.706 88.825 124.006 92.575C147.688 113.275 127.131 166.531 120.831 176.075C114.531 185.619 87.3688 179.313 76.8125 173.913C66.2563 168.513 54.9375 159.769 58.3375 155.969C61.7375 152.169 75.15 138.188 73.4563 128.744C71.7625 119.3 66.4063 103.906 69.1875 94.45Z" fill="#F2FEFF"/>
<path d="M58.3376 155.944C61.7563 152.144 75.1501 138.163 73.4563 128.719C71.7626 119.275 66.4001 103.906 69.1876 94.45C70.4376 90.1375 76.6876 87.6688 84.2938 86.4813C83.5688 94.5063 82.0563 114.369 83.9251 123.356C86.1438 134.038 83.4438 163.125 71.3688 170.825C62.7938 165.625 55.5126 159.088 58.3376 155.944Z" fill="#D8E5FC"/>
<path d="M92.0377 170.969C67.9752 160.894 49.9689 151.712 34.4502 152.406C18.9314 153.1 -42.2748 217.063 -38.6561 225.681C-35.0373 234.3 -24.4811 239.306 -22.5186 237.413C-20.5561 235.519 29.2377 192.75 35.4877 179.819C35.4877 179.819 64.9689 204.594 94.2877 200.513C115.956 197.494 120.719 181.95 119.288 177.756C118.05 174.094 97.0689 173.075 92.0377 170.969Z" fill="#4873CA"/>
<path d="M45.6564 179.419C43.0564 177.775 37.7751 176.594 31.9064 179.662C24.1064 183.75 -7.93113 253.981 -3.83113 259.594C-0.224881 264.531 12.5501 268.269 17.5501 266.369C22.5501 264.469 51.6939 193.75 51.6939 193.75C51.6939 193.75 59.1939 195.131 59.2251 194.275C59.2564 193.419 48.8314 181.425 45.6564 179.419Z" fill="#1E4F8E"/>
<path d="M92.3816 149.494L40.2066 145.331L9.65039 150.956L60.2254 154.981L93.0066 149.906C92.9449 149.791 92.8554 149.693 92.7463 149.621C92.6372 149.549 92.5119 149.505 92.3816 149.494V149.494Z" fill="#3175DE"/>
<path d="M60.2251 154.963L61.6251 159.131L61.8376 159.094C64.3376 158.619 88.2063 153.994 92.3001 153.2C92.4685 153.165 92.6207 153.076 92.7336 152.946C92.8464 152.816 92.9137 152.653 92.9251 152.481L93.0938 150.356C93.1127 150.19 93.0753 150.023 92.9876 149.881L60.2251 154.963Z" fill="#0058C3"/>
<path d="M58.5939 153.481L85.1565 150.019L56.2939 147.712L58.5939 153.481Z" fill="#F2FEFF"/>
<path d="M60.2251 154.963L9.65009 150.938L0.231336 109.113C0.188974 108.929 0.183412 108.74 0.214973 108.554C0.246534 108.369 0.314589 108.192 0.415186 108.033C0.515782 107.875 0.646915 107.737 0.800969 107.63C0.955024 107.522 1.12893 107.446 1.31259 107.406V107.406C1.4534 107.384 1.59677 107.384 1.73759 107.406L49.3313 111.2C49.6299 111.229 49.9117 111.351 50.1362 111.55C50.3608 111.749 50.5166 112.013 50.5813 112.306L60.2251 154.963Z" fill="#3175DE"/>
<path d="M31.519 130C31.919 131.875 30.9753 133.625 29.4003 133.969C27.8253 134.312 26.2503 133.081 25.8253 131.25C25.4003 129.419 26.369 127.619 27.944 127.281C29.519 126.944 31.119 128.125 31.519 130Z" fill="#F2FEFF"/>
<path d="M9.65039 150.938L11.7691 154.169C12.0226 154.552 12.3596 154.872 12.7547 155.106C13.1499 155.34 13.5928 155.481 14.0504 155.519L59.9066 159.175C60.4775 159.22 61.0514 159.205 61.6191 159.131L60.2191 155L9.65039 150.938Z" fill="#0058C3"/>
<path d="M17.2254 111.525L7.70042 110.769C7.26252 110.734 6.82199 110.785 6.40403 110.921C5.98607 111.056 5.59887 111.272 5.26454 111.557C4.93022 111.842 4.65533 112.19 4.45558 112.581C4.25584 112.973 4.13515 113.4 4.10042 113.837V113.837C4.07425 114.188 4.10165 114.539 4.18167 114.881L7.30667 127.825C7.37024 128.074 7.52893 128.288 7.74863 128.421C7.96834 128.555 8.23153 128.596 8.48167 128.538V128.538C8.67382 128.489 8.84692 128.384 8.97844 128.235C9.10997 128.087 9.19385 127.903 9.21917 127.706C9.70042 123.331 10.6317 117.994 12.3817 116.844C14.1317 115.694 16.1317 114.344 17.7067 113.3C17.8721 113.187 17.9985 113.025 18.0686 112.837C18.1388 112.649 18.1493 112.444 18.0987 112.25C18.0481 112.056 17.939 111.882 17.786 111.752C17.6331 111.623 17.4439 111.543 17.2442 111.525H17.2254Z" fill="#F2FEFF"/>
<path d="M134.163 128.081L115.744 107.369C115.744 107.369 117.838 122.563 122.669 136.469C124.55 142.048 127.176 147.348 130.475 152.225C132.665 144.803 134.13 137.186 134.85 129.481L134.163 128.081Z" fill="#98BDFF"/>
<path d="M128.838 168.662C128.838 168.662 123.088 178.919 103.969 186.225C84.8503 193.531 70.6253 200.194 68.7503 202.688C66.8753 205.181 77.0878 210.313 96.444 205.338C115.8 200.363 130.238 179.694 128.838 168.662Z" fill="#3269A5"/>
<path d="M121.006 93.3563C131.256 89.9688 156.7 125.45 152.219 162.175C147.738 198.9 77.619 164.494 79.6252 157.175C80.0502 155.631 78.869 151.55 82.7065 151.163C96.9752 149.769 127.375 156.163 130.1 153.038C134.569 147.963 102.206 99.5688 121.006 93.3563Z" fill="#F2FEFF"/>
<path d="M121.006 93.3563C120.183 93.6207 119.405 94.0107 118.7 94.5125C120.456 99.8688 129.4 107.156 135.125 115.794C145.319 131.169 147.219 155.625 144.288 164.244C141.356 172.863 135 172.5 125 172.194C115.756 171.925 96.619 165.281 90.794 161.488C86.4752 158.675 82.269 154.338 80.044 153.144C79.5752 154.538 79.869 156.3 79.6252 157.2C77.619 164.494 147.75 198.9 152.219 162.2C156.688 125.5 131.25 90 121.006 93.3563Z" fill="#D8E5FC"/>
<path d="M80.7625 149.881C78.525 149.175 76.1687 150.55 73.6375 150.15C71.1062 149.75 71.225 151.537 73.0125 152.369C73.6202 152.643 74.2841 152.769 74.95 152.737C73.925 154.187 69.0625 157.7 69.0625 157.7C69.0625 157.7 69.3312 158.2 73.0125 158.081C76.6937 157.962 80.6813 157.519 82.15 155.669C83.0688 154.5 83.0062 150.625 80.7625 149.881Z" fill="#FFF5F5"/>
<path d="M87.344 63.4125C87.344 63.4125 91.8753 61.7313 93.9565 61.875C96.0378 62.0188 97.7065 58.8438 99.8253 59.375C101.944 59.9063 101.875 63.0813 100.219 64.4125C98.5628 65.7438 101.469 75.575 96.469 78.1625C91.469 80.75 83.8065 67.6688 87.344 63.4125Z" fill="#FF801C"/>
<path d="M83.7503 73.2125C83.7503 73.2125 80.1503 72.9625 80.144 68.2125C80.144 65.0875 84.519 60.35 86.569 60.2875C88.619 60.225 87.9128 61.95 88.3003 62.875C90.3878 67.875 96.1191 69.75 96.9003 73.8C97.6816 77.85 92.6566 80.1 90.8128 79.3438C88.9691 78.5875 83.7503 73.2125 83.7503 73.2125Z" fill="#144AAF"/>
<path d="M95.575 75.2625L102.3 87.5313C102.656 89.4063 93.4063 96.5125 89.9813 94.65C88.9813 94.1063 88.9 92.25 89.3563 90.1313L92.3313 78.5375L95.575 75.2625Z" fill="#FFF5F5"/>
<path d="M91.7504 80.8688C93.7692 80.1188 96.5192 79.0688 96.5192 79.0688C96.668 81.3776 95.9379 83.6572 94.4754 85.45C93.284 86.9255 91.6455 87.9739 89.8066 88.4375L91.7504 80.8688Z" fill="#FFF5F5"/>
<path d="M91.8128 70.9375L96.0565 77.7375C96.6455 78.8665 96.7707 80.1807 96.4053 81.4006C96.0399 82.6204 95.2129 83.6495 94.1003 84.2688C92.2253 85.3 90.9753 85.6188 88.3503 85.9375C86.1753 86.2 84.6003 84.4438 83.9065 81.6688C83.2327 78.6991 83.0741 75.6358 83.4378 72.6125C83.9315 68.2813 88.7503 66.7125 91.8128 70.9375Z" fill="#FFF5F5"/>
<path d="M92.594 74.2438C92.7381 73.7694 92.8323 73.2814 92.8753 72.7875C92.969 71.85 93.3253 70.475 94.6503 71.3C96.5753 72.5 95.8065 77.475 93.444 77.625C91.694 77.7375 92.2128 75.4375 92.594 74.2438Z" fill="#FFF5F5"/>
<path d="M88.4004 77.9375C87.0785 78.5551 85.6636 78.95 84.2129 79.1063C84.2975 79.3951 84.4582 79.656 84.6781 79.8616C84.8979 80.0672 85.169 80.2099 85.4629 80.275C86.6066 80.625 88.2879 80 88.4004 77.9375Z" fill="#F2FEFF"/>
<path d="M87.0189 83.35C89.2627 82.2937 91.944 85.4313 95.3127 81C95.9377 80.1688 95.9815 78.5438 95.9377 77.5938L96.0377 77.7375C96.6249 78.8685 96.7484 80.1837 96.382 81.4042C96.0156 82.6247 95.1882 83.6544 94.0752 84.275C92.2002 85.3 90.9502 85.6187 88.3252 85.9375C87.6927 86.0093 87.0527 85.9021 86.4782 85.628C85.9036 85.354 85.4175 84.9242 85.0752 84.3875C85.5377 84.375 86.3314 83.675 87.0189 83.35Z" fill="#FFF5F5"/>
<path d="M228.949 37.1335L229.534 34.9175L226.812 34.9621C226.704 34.9637 226.598 34.9505 226.495 34.9233C226.391 34.8961 226.293 34.8551 226.199 34.8004L223.854 33.4181L223.269 35.6342C223.117 36.2075 224.266 37.0084 225.835 37.4225C227.404 37.8366 228.798 37.7082 228.949 37.1335Z" fill="#FF912A"/>
<path d="M231.755 33.7704L227.695 31.3764C227.62 31.3325 227.54 31.298 227.457 31.2761C227.374 31.2541 227.289 31.2437 227.2 31.2458L222.488 31.3244C222.199 31.3293 222.058 31.8648 222.306 32.0113L223.966 32.9892L226.367 34.4038C226.442 34.4477 226.522 34.4822 226.605 34.5042C226.688 34.5261 226.773 34.5365 226.861 34.5344L229.647 34.4885L230.514 34.4744L229.821 37.1012C229.695 37.1924 229.59 37.349 229.539 37.5396C229.446 37.8914 229.575 38.2313 229.826 38.2976C230.078 38.3639 230.357 38.1319 230.45 37.7801C230.501 37.588 230.486 37.4012 230.422 37.2597L231.16 34.4634L231.574 34.4572C231.861 34.4521 232.002 33.9166 231.755 33.7704Z" fill="#FF912A"/>
<path d="M224.276 40.9159C224.149 40.8849 224.102 40.8053 224.134 40.6771L224.546 38.996C224.577 38.8698 224.655 38.8219 224.779 38.8524C224.903 38.8829 224.95 38.9613 224.919 39.0876L224.537 40.6434L225.382 40.8508C225.491 40.8775 225.532 40.9433 225.507 41.0481C225.48 41.155 225.413 41.195 225.304 41.1683L224.276 40.9159ZM226.368 41.4604C226.207 41.4208 226.075 41.3566 225.974 41.2678C225.872 41.179 225.803 41.0714 225.766 40.9449C225.731 40.8189 225.732 40.6802 225.769 40.5287C225.805 40.3811 225.867 40.2593 225.954 40.1634C226.044 40.0679 226.149 40.0022 226.272 39.9663C226.396 39.9289 226.527 39.9271 226.665 39.9609C226.867 40.0105 227.011 40.1137 227.096 40.2705C227.183 40.4278 227.199 40.6171 227.145 40.8386C227.127 40.9104 227.072 40.9349 226.978 40.912L226.099 40.6961C226.063 40.9572 226.178 41.1202 226.442 41.185C226.492 41.1974 226.55 41.2054 226.615 41.209C226.683 41.2112 226.748 41.2036 226.812 41.1863C226.87 41.1696 226.915 41.1713 226.947 41.1916C226.98 41.2099 226.999 41.2362 227.005 41.2706C227.013 41.3055 227.006 41.341 226.985 41.377C226.966 41.4115 226.931 41.4369 226.88 41.4531C226.801 41.4791 226.715 41.4919 226.62 41.4913C226.528 41.4893 226.444 41.479 226.368 41.4604ZM226.619 40.2122C226.512 40.186 226.418 40.1978 226.335 40.2476C226.253 40.2974 226.191 40.377 226.15 40.4863L226.867 40.6622C226.888 40.5418 226.877 40.4434 226.834 40.367C226.794 40.289 226.722 40.2374 226.619 40.2122ZM227.892 41.8344C227.515 41.7419 227.373 41.5092 227.464 41.1363L227.616 40.5157L227.465 40.4785C227.368 40.4547 227.33 40.3971 227.353 40.3058C227.375 40.2145 227.435 40.1808 227.532 40.2046L227.684 40.2418L227.749 39.9767C227.779 39.8543 227.855 39.8082 227.977 39.8382C228.098 39.8677 228.143 39.9437 228.113 40.0661L228.048 40.3312L228.357 40.407C228.454 40.4308 228.491 40.4884 228.469 40.5797C228.446 40.671 228.387 40.7047 228.289 40.6809L227.981 40.6051L227.833 41.2053C227.81 41.2985 227.814 41.3734 227.843 41.4301C227.872 41.4867 227.933 41.5262 228.024 41.5486C228.057 41.5567 228.087 41.5609 228.114 41.5613C228.14 41.5617 228.164 41.5633 228.183 41.5661C228.207 41.5699 228.225 41.5824 228.236 41.6037C228.248 41.6231 228.247 41.658 228.235 41.7085C228.225 41.7474 228.21 41.7806 228.189 41.8084C228.17 41.8347 228.143 41.8496 228.107 41.8531C228.08 41.8547 228.045 41.8534 228.003 41.8492C227.96 41.847 227.923 41.842 227.892 41.8344ZM222.365 44.5904C222.241 44.5599 222.194 44.4805 222.226 44.3523L222.612 42.779L222.044 42.6396C221.937 42.6134 221.896 42.5478 221.922 42.4429C221.947 42.34 222.013 42.3016 222.12 42.3278L223.629 42.6982C223.736 42.7245 223.777 42.789 223.752 42.892C223.726 42.9969 223.66 43.0362 223.553 43.01L222.985 42.8705L222.599 44.4439C222.567 44.572 222.489 44.6209 222.365 44.5904ZM223.753 44.9372C223.403 44.8514 223.277 44.6123 223.373 44.22L223.546 43.5149C223.576 43.3925 223.651 43.3461 223.772 43.3757C223.894 43.4057 223.94 43.4819 223.91 43.6043L223.736 44.3152C223.711 44.4162 223.713 44.496 223.742 44.5546C223.771 44.6131 223.83 44.6534 223.919 44.6753C224.016 44.6991 224.104 44.6857 224.182 44.6349C224.261 44.5822 224.314 44.5004 224.341 44.3897L224.499 43.7487C224.529 43.6264 224.604 43.58 224.724 43.6095C224.847 43.6396 224.893 43.7158 224.863 43.8381L224.593 44.9394C224.562 45.0638 224.488 45.1114 224.369 45.0823C224.251 45.0532 224.207 44.9765 224.237 44.8522L224.249 44.8027C224.115 44.9405 223.949 44.9854 223.753 44.9372ZM225.577 45.385C225.2 45.2925 225.058 45.0598 225.149 44.6868L225.302 44.0662L225.15 44.0291C225.053 44.0052 225.016 43.9477 225.038 43.8564C225.06 43.7651 225.12 43.7314 225.217 43.7552L225.369 43.7924L225.434 43.5272C225.464 43.4049 225.54 43.3587 225.662 43.3887C225.783 43.4183 225.828 43.4943 225.798 43.6166L225.733 43.8818L226.042 43.9576C226.139 43.9814 226.176 44.039 226.154 44.1302C226.131 44.2215 226.072 44.2553 225.975 44.2314L225.666 44.1556L225.518 44.7558C225.496 44.8491 225.499 44.924 225.528 44.9806C225.557 45.0372 225.618 45.0768 225.709 45.0992C225.742 45.1073 225.772 45.1115 225.799 45.1119C225.825 45.1122 225.849 45.1138 225.869 45.1167C225.892 45.1204 225.91 45.133 225.921 45.1543C225.933 45.1736 225.932 45.2086 225.92 45.2591C225.911 45.2979 225.895 45.3312 225.874 45.3589C225.855 45.3852 225.828 45.4001 225.792 45.4037C225.765 45.4052 225.73 45.4039 225.688 45.3998C225.645 45.3975 225.608 45.3926 225.577 45.385ZM226.678 45.6552C226.531 45.619 226.41 45.5574 226.316 45.4705C226.222 45.3836 226.158 45.2774 226.125 45.1519C226.093 45.0244 226.095 44.885 226.132 44.7335C226.169 44.582 226.232 44.4582 226.319 44.3623C226.406 44.2664 226.512 44.2016 226.635 44.1681C226.759 44.1346 226.895 44.136 227.042 44.1722C227.19 44.2084 227.311 44.27 227.405 44.3569C227.499 44.4438 227.562 44.55 227.595 44.6755C227.628 44.801 227.626 44.9395 227.589 45.091C227.552 45.2425 227.489 45.3672 227.401 45.4651C227.314 45.561 227.209 45.6257 227.085 45.6593C226.961 45.6928 226.826 45.6914 226.678 45.6552ZM226.746 45.3784C226.855 45.4051 226.952 45.3877 227.037 45.3262C227.123 45.2628 227.184 45.1544 227.222 45.0009C227.26 44.8455 227.255 44.7218 227.208 44.6299C227.161 44.536 227.083 44.4757 226.974 44.449C226.865 44.4223 226.769 44.4397 226.683 44.5012C226.599 44.5607 226.537 44.6682 226.499 44.8236C226.462 44.977 226.466 45.1017 226.513 45.1975C226.56 45.2914 226.637 45.3517 226.746 45.3784ZM227.895 45.9477C227.771 45.9172 227.724 45.8398 227.754 45.7154L228.025 44.6141C228.055 44.4918 228.129 44.4451 228.247 44.4742C228.366 44.5033 228.41 44.579 228.38 44.7014L228.358 44.7917C228.469 44.6418 228.641 44.5853 228.875 44.6221C228.961 44.6329 228.996 44.6919 228.98 44.7992C228.965 44.9045 228.9 44.9494 228.786 44.9339L228.721 44.924C228.476 44.8887 228.327 44.9817 228.272 45.2032L228.124 45.8063C228.094 45.9306 228.017 45.9777 227.895 45.9477Z" fill="#FF912A"/>
</g>
<defs>
<clipPath id="clip0_208_1098">
<rect width="250" height="187.5" fill="white"/>
</clipPath>
</defs>
</svg>
