<svg width="200" height="150" viewBox="0 0 200 150" fill="none" xmlns="http://www.w3.org/2000/svg">
<g clip-path="url(#clip0)">
<path d="M184.75 54.41L175.04 51.26C174.085 50.95 173.37 49.65 173.455 48.37L175.335 19.815C175.43 17.66 177.835 17.115 178.785 17.43L188.5 20.58C189.455 20.885 190.165 22.185 190.085 23.465L188.205 52.025C188.12 53.3 185.75 54.865 184.75 54.41Z" fill="#0058C3"/>
<path d="M184.75 54.41L175.04 51.26C174.085 50.95 173.37 49.65 173.455 48.37L175.335 19.815C175.42 18.535 176.27 17.745 177.225 18.055L186.935 21.205C187.89 21.51 188.605 22.81 188.52 24.09L186.64 52.65C186.56 53.925 185.705 54.72 184.75 54.41Z" fill="#3175DE"/>
<path d="M187.855 24.1L186 52C185.935 52.945 185.31 53.535 184.61 53.305L175.285 50.305C174.58 50.08 174.06 49.12 174.12 48.17L176 20.245C176.06 19.3 176.685 18.71 177.39 18.94L186.715 21.94C187.39 22.19 187.915 23.15 187.855 24.1Z" fill="#CBE0FF"/>
<path d="M183.905 22.12L180 20.855C179.828 20.7655 179.688 20.6254 179.599 20.4537C179.51 20.282 179.475 20.087 179.5 19.895V19.775C179.53 19.35 179.81 19.085 180.13 19.19L184 20.455C184.176 20.5408 184.321 20.6793 184.416 20.8513C184.51 21.0233 184.548 21.2203 184.525 21.415V21.535C184.5 21.96 184.225 22.225 183.905 22.12Z" fill="#3175DE"/>
<path d="M120.125 53.405C120.125 53.405 109.4 72.525 105.365 80.68C104.68 82.065 125.73 85.98 120.305 90.655C114.88 95.33 90.8399 92.41 89.4349 81.44C88.3399 72.875 104.575 46.44 108.88 45.645C113.185 44.85 120.125 53.405 120.125 53.405Z" fill="#FF6161"/>
<path d="M166.385 281.565C163.7 277.83 156.885 275 156.885 275C156.885 275 164.515 219.775 158.765 169.91C155.765 143.73 143.31 111.11 141.05 106.28C133.125 107.58 100.08 100.535 95.9299 100.2C93.2999 104.605 88.1699 111.02 86.2649 123.7C83.2649 143.7 94.5749 174.655 95.3199 190.7C95.5249 195.14 101.605 273.6 101.605 273.6C101.77 274.642 101.739 275.705 101.515 276.735C101.055 278.905 100.365 282.685 101.09 283.095C105.805 285.74 126.52 285.295 123.835 281.56C121.15 277.825 114.335 274.995 114.335 274.995C114.335 274.995 127.925 182.495 119.335 156.18C125.705 165.135 131.335 184.835 131.94 192.485C133.39 210.985 144.11 273.6 144.11 273.6C144.276 274.641 144.247 275.704 144.025 276.735C143.565 278.905 142.875 282.685 143.6 283.095C148.355 285.75 169.07 285.3 166.385 281.565Z" fill="#FF6161"/>
<path d="M125.915 55.37C125.915 55.37 129.12 73.435 123.85 80.71C118.58 87.985 113.54 84.865 110.395 84.29C107.25 83.715 107.645 85.17 104.755 83.325C101.865 81.48 92.12 74.325 90.92 70.165C90.22 67.745 96.04 56 102.42 51.025C107.715 46.865 123.63 46.445 125.915 55.37Z" fill="#D8E5FC"/>
<path d="M166.625 256.795C167.125 235.255 165.22 205.36 161.485 172.98C158.485 146.795 143.32 111.11 141.06 106.28C133.135 107.58 100.09 100.535 95.94 100.2C93.31 104.605 88.18 111.02 86.275 123.7C83.275 143.7 91.64 234.475 86.595 257.29C99.4 262.22 115.21 261.875 120.35 256.79C123.81 228.455 125.545 175.135 119.375 156.18C125.745 165.14 125.4 183.37 126 191C127 203.455 131 236 129.805 258.325C143.325 266.5 164.225 261.615 166.625 256.795Z" fill="#08346F"/>
<path d="M118.465 43.61C118.465 43.61 119.545 36.875 120.265 34.11C120.89 31.71 121.73 30.5 122.92 29.935C125.48 28.725 127.115 44.67 125.92 45.325C124.725 45.98 118.465 43.61 118.465 43.61Z" fill="#FAADAD"/>
<path d="M127.925 23.09C127.925 23.09 130.425 28.125 131.095 30.965C131.765 33.805 130.41 37.18 127.695 38.1C125.785 38.745 120.8 36.27 121.145 32.43C121.49 28.59 127.925 23.09 127.925 23.09Z" fill="#FAADAD"/>
<path d="M128.25 36.845C126.345 37.5 121.36 35 121.705 31.18C121.726 31.0111 121.759 30.8439 121.805 30.68C121.446 31.2047 121.22 31.8086 121.145 32.44C120.8 36.28 125.785 38.755 127.695 38.11C128.467 37.8174 129.16 37.3487 129.719 36.741C130.278 36.1334 130.688 35.4037 130.915 34.61C130.328 35.654 129.38 36.4485 128.25 36.845Z" fill="#FF8080"/>
<path d="M141.06 106.28C139.36 106.56 136.5 106.45 133.02 106.11C130.37 110.895 128.68 115.975 129.43 120.61C131.8 135.16 144.19 190.855 147.31 200.645C150.24 209.85 140.135 245.36 140.52 262.145C152.335 264.145 164.805 260.45 166.625 256.795C167.125 235.255 165.22 205.36 161.485 172.98C158.465 146.795 143.32 111.11 141.06 106.28Z" fill="#001633"/>
<path d="M142.455 109.595L139.43 97.96C138.659 92.088 139.625 86.1187 142.21 80.79C146.255 72.54 150.915 57.46 143.005 50.325C132.505 40.825 111.415 38.685 103.76 55.95C97.7199 69.585 96.5199 83.425 92.9049 100.88C91.7449 106.5 106 111.84 116.5 112.4C135.105 113.39 142.455 109.595 142.455 109.595Z" fill="white"/>
<path d="M139.43 97.96C138.659 92.0863 139.626 86.1157 142.21 80.785C146.26 72.54 150.92 57.455 143.005 50.325C140.3 47.885 139.175 50.59 135.235 49.245C135.735 50.745 133.735 48.14 133.95 50.96C134.365 56.77 126.685 76.185 127.41 93.525C127.675 99.875 128.185 106.5 128.72 112.355C138.4 111.68 142.455 109.595 142.455 109.595L139.43 97.96Z" fill="#D8E5FC"/>
<path d="M130.92 20.84C130.646 19.6865 130.004 18.6535 129.091 17.8968C128.178 17.1401 127.044 16.7007 125.86 16.645C123.195 16.555 120.815 16.23 115.73 20.145C111.93 23.055 112.865 35.645 119.405 38.215C122.29 39.355 126.105 33.83 126.85 32.215C127.829 29.7779 128.501 27.2283 128.85 24.625L130.27 26.15C130.27 26.15 131.85 24.095 130.92 20.84Z" fill="#144AAF"/>
<path d="M127.9 32.155C127.971 31.7517 127.924 31.3364 127.764 30.9593C127.605 30.5822 127.339 30.2594 127 30.03C125.825 29.335 125.095 30.85 126 32.98C126.905 35.11 127.885 34.45 127.9 32.155Z" fill="#FF8080"/>
<path d="M138.265 49.5C138.265 49.5 157.265 67.335 165.56 76.265C165.815 76.54 180.535 48.7 184.185 57.665C187.835 66.63 174.38 99.905 160.445 96.64C153.645 95.045 140.88 81.74 132.445 70.57C127.375 63.875 124.76 59.315 125.015 57.155C125.675 51.37 138.265 49.5 138.265 49.5Z" fill="#FF8080"/>
<path d="M121.745 28.365C118.38 28.32 115.39 26.58 113.575 25.23C113.075 30.055 114.95 36.45 119.405 38.2C122.29 39.34 126.105 33.815 126.85 32.2C127.432 30.7612 127.903 29.2803 128.26 27.77C126.115 28.1976 123.932 28.397 121.745 28.365Z" fill="#08346F"/>
<path d="M145.33 85.565C146.926 84.6035 148.457 83.5396 149.915 82.38C152.376 80.2396 154.513 77.7538 156.26 75L135.955 74.845C138.82 78.345 142.03 82 145.33 85.565Z" fill="#FF6969"/>
<path d="M179.71 55.62C179.71 55.62 179.765 51.62 179.59 50.51C179.415 49.4 178.985 43.365 180.09 43.365C182.135 43.365 181.99 48.02 182.735 49.19C183.185 49.89 185.43 48.915 187.235 46.43C188.03 45.335 188.765 41.835 188.99 41.65C189.35 41.355 189.87 41.555 190.295 41.835C191.505 42.64 191.545 46.56 192.245 47.765C192.945 48.97 193.315 51.32 190.245 56.005C187.175 60.69 178.62 63.97 179.71 55.62Z" fill="#FF8080"/>
<path d="M140.16 47.115C140.16 47.115 158.72 55.115 160.615 63.9C162.51 72.685 156.82 74.345 154.285 76.3C151.75 78.255 153.11 78.935 149.785 79.85C146.46 80.765 142.63 83.85 140.12 83.655C137.61 83.46 126.075 66.5 124.195 60.03C122.315 53.56 132 42.855 140.16 47.115Z" fill="white"/>
<path d="M115.545 23.09C115.545 23.09 109.045 18.91 103.735 23.09C98.425 27.27 101.795 28.765 101.795 35.065C101.795 41.365 91.835 39.26 92.225 44.5C92.615 49.74 103.86 49.245 104.765 54.675C105.67 60.105 95.48 58.84 98.825 63.76C102.17 68.68 116.15 65.575 117.64 56.31C119.13 47.045 111.105 44.005 114.08 42.42C117.055 40.835 119.6 23.955 115.545 23.09Z" fill="#144AAF"/>
<path d="M57 73.08C57 73.08 17.645 107.705 26.61 118.17C35.575 128.635 58.11 108.52 62.575 102.855C67.04 97.19 57 73.08 57 73.08Z" fill="#D8E5FC"/>
<path d="M116.8 134C118.12 124.15 117.72 100.155 109.995 90.225C102.27 80.295 72.4949 80.475 67.1399 98.685C61.7849 116.895 27.2149 115.96 31.4599 151.285C34.0449 172.825 109.745 186.74 116.8 134Z" fill="#001633"/>
<path d="M109.83 105.92C109.83 105.92 112.12 123.165 109.5 127.99C106.88 132.815 57.7699 165.1 48.6649 162.065C39.5599 159.03 32.2499 154.34 33.3549 146.615C34.4599 138.89 38.9999 126.2 50.5999 120.82C62.1999 115.44 73.2249 104.585 74.2399 97.505C76.1149 84.435 107.07 79.3 109.83 105.92Z" fill="#3269A5"/>
<path d="M59.14 87.75C58.1773 86.2559 56.6982 85.1684 54.985 84.695C54.985 84.695 55.92 99.89 55.83 103.29C55.77 105.555 55.79 108.1 55.83 109.55C58.2677 107.516 60.526 105.276 62.58 102.855C63.29 101.945 63.63 100.565 63.705 98.885C62 94.255 59.965 89.065 59.14 87.75Z" fill="#98BDFF"/>
<path d="M55.35 75.56C57.075 69.69 70.3 68.095 80.805 68.56C87.305 68.835 95.765 71.06 99.205 74.06C118.15 90.62 101.705 133.225 96.665 140.86C91.625 148.495 69.895 143.45 61.45 139.13C53.005 134.81 43.95 127.815 46.67 124.775C49.39 121.735 60.12 110.55 58.765 102.995C57.41 95.44 53.125 83.125 55.35 75.56Z" fill="white"/>
<path d="M46.67 124.755C49.405 121.715 60.12 110.53 58.765 102.975C57.41 95.42 53.12 83.125 55.35 75.56C56.35 72.11 61.35 70.135 67.435 69.185C66.855 75.605 65.645 91.495 67.14 98.685C68.915 107.23 66.755 130.5 57.095 136.66C50.235 132.5 44.41 127.27 46.67 124.755Z" fill="#D8E5FC"/>
<path d="M73.63 136.775C54.38 128.715 39.975 121.37 27.56 121.925C15.145 122.48 -33.82 173.65 -30.925 180.545C-28.03 187.44 -19.585 191.445 -18.015 189.93C-16.445 188.415 23.39 154.2 28.39 143.855C28.39 143.855 51.975 163.675 75.43 160.41C92.765 157.995 96.575 145.56 95.43 142.205C94.44 139.275 77.655 138.46 73.63 136.775Z" fill="#08346F"/>
<path d="M36.525 143.535C34.445 142.22 30.22 141.275 25.525 143.73C19.285 147 -6.34503 203.185 -3.06503 207.675C-0.180027 211.625 10.04 214.615 14.04 213.095C18.04 211.575 41.355 155 41.355 155C41.355 155 47.355 156.105 47.38 155.42C47.405 154.735 39.065 145.14 36.525 143.535Z" fill="#001633"/>
<path d="M73.905 119.595L32.165 116.265L7.71997 120.765L48.18 123.985L74.405 119.925C74.3556 119.833 74.284 119.754 74.1967 119.697C74.1094 119.639 74.0092 119.604 73.905 119.595Z" fill="#3175DE"/>
<path d="M48.1799 123.97L49.2999 127.305L49.4699 127.275C51.4699 126.895 70.5649 123.195 73.8399 122.56C73.9746 122.532 74.0964 122.46 74.1867 122.357C74.277 122.253 74.3308 122.122 74.3399 121.985L74.4749 120.285C74.49 120.152 74.4601 120.019 74.3899 119.905L48.1799 123.97Z" fill="#0058C3"/>
<path d="M46.8749 122.785L68.1249 120.015L45.0349 118.17L46.8749 122.785Z" fill="#CBE0FF"/>
<path d="M48.18 123.97L7.71997 120.75L0.184971 87.29C0.151082 87.1435 0.146632 86.9918 0.171881 86.8436C0.19713 86.6954 0.251574 86.5536 0.332051 86.4266C0.412528 86.2996 0.517434 86.1899 0.640678 86.1038C0.763921 86.0177 0.903046 85.9569 1.04997 85.925C1.16263 85.9075 1.27732 85.9075 1.38997 85.925L39.465 88.96C39.7038 88.9829 39.9292 89.0809 40.1089 89.2399C40.2886 89.3989 40.4132 89.6107 40.465 89.845L48.18 123.97Z" fill="#3175DE"/>
<path d="M25.215 104C25.535 105.5 24.78 106.9 23.52 107.175C22.26 107.45 21 106.465 20.66 105C20.32 103.535 21.095 102.095 22.355 101.825C23.615 101.555 24.895 102.5 25.215 104Z" fill="#80B4FE"/>
<path d="M7.71997 120.75L9.41497 123.335C9.61777 123.641 9.88735 123.898 10.2034 124.085C10.5195 124.272 10.8739 124.385 11.24 124.415L47.925 127.34C48.3816 127.376 48.8408 127.364 49.295 127.305L48.175 124L7.71997 120.75Z" fill="#0058C3"/>
<path d="M13.78 89.22L6.16002 88.615C5.80969 88.5869 5.45728 88.6282 5.12291 88.7364C4.78854 88.8447 4.47878 89.0177 4.21132 89.2457C3.94386 89.4737 3.72395 89.7522 3.56415 90.0652C3.40435 90.3782 3.3078 90.7196 3.28002 91.07C3.25908 91.35 3.281 91.6316 3.34502 91.905L5.84502 102.26C5.89588 102.459 6.02283 102.63 6.19859 102.737C6.37435 102.844 6.58491 102.877 6.78502 102.83C6.93874 102.791 7.07721 102.707 7.18244 102.588C7.28766 102.47 7.35476 102.322 7.37502 102.165C7.76002 98.665 8.50502 94.395 9.90502 93.475C11.305 92.555 12.905 91.475 14.165 90.64C14.2973 90.5492 14.3984 90.4199 14.4546 90.2696C14.5107 90.1193 14.5191 89.9553 14.4787 89.8C14.4382 89.6448 14.3508 89.5058 14.2285 89.402C14.1062 89.2982 13.9548 89.2346 13.795 89.22H13.78Z" fill="#CBE0FF"/>
<path d="M107.33 102.465L92.595 85.895C92.595 85.895 94.27 98.05 98.135 109.175C99.6398 113.639 101.74 117.879 104.38 121.78C106.131 115.842 107.304 109.749 107.88 103.585L107.33 102.465Z" fill="#98BDFF"/>
<path d="M103.07 134.93C103.07 134.93 98.47 143.135 83.175 148.98C67.88 154.825 56.5 160.155 55 162.15C53.5 164.145 61.67 168.25 77.155 164.27C92.64 160.29 104.19 143.755 103.07 134.93Z" fill="#3269A5"/>
<path d="M96.805 74.685C105.005 71.975 125.36 100.36 121.775 129.74C118.19 159.12 62.095 131.595 63.7 125.74C64.04 124.505 63.095 121.24 66.165 120.93C77.58 119.815 101.9 124.93 104.08 122.43C107.655 118.37 81.765 79.655 96.805 74.685Z" fill="white"/>
<path d="M96.805 74.685C96.1461 74.8966 95.5238 75.2086 94.96 75.61C96.365 79.895 103.52 85.725 108.1 92.635C116.255 104.935 117.775 124.5 115.43 131.395C113.085 138.29 108 138 100 137.755C92.605 137.54 77.295 132.225 72.635 129.19C69.18 126.94 65.815 123.47 64.035 122.515C63.66 123.63 63.895 125.04 63.7 125.76C62.095 131.595 118.2 159.12 121.775 129.76C125.35 100.4 105 72 96.805 74.685Z" fill="#D8E5FC"/>
<path d="M64.61 119.905C62.82 119.34 60.935 120.44 58.91 120.12C56.885 119.8 56.98 121.23 58.41 121.895C58.8962 122.114 59.4273 122.215 59.96 122.19C59.14 123.35 55.25 126.16 55.25 126.16C55.25 126.16 55.465 126.56 58.41 126.465C61.355 126.37 64.545 126.015 65.72 124.535C66.455 123.6 66.405 120.5 64.61 119.905Z" fill="#FF8080"/>
<path d="M69.8749 50.73C69.8749 50.73 73.4999 49.385 75.1649 49.5C76.8299 49.615 78.1649 47.075 79.8599 47.5C81.5549 47.925 81.5 50.465 80.175 51.53C78.8499 52.595 81.175 60.46 77.1749 62.53C73.1749 64.6 67.0449 54.135 69.8749 50.73Z" fill="#07D9C9"/>
<path d="M67 58.57C67 58.57 64.12 58.37 64.115 54.57C64.115 52.07 67.615 48.28 69.255 48.23C70.895 48.18 70.33 49.56 70.64 50.3C72.31 54.3 76.895 55.8 77.52 59.04C78.145 62.28 74.125 64.08 72.65 63.475C71.175 62.87 67 58.57 67 58.57Z" fill="#144AAF"/>
<path d="M76.46 60.21L81.84 70.025C82.125 71.525 74.725 77.21 71.985 75.72C71.185 75.285 71.12 73.8 71.485 72.105L73.865 62.83L76.46 60.21Z" fill="#FAADAD"/>
<path d="M73.4 64.695C75.015 64.095 77.215 63.255 77.215 63.255C77.3341 65.1021 76.75 66.9258 75.58 68.36C74.6269 69.5404 73.3161 70.3791 71.845 70.75L73.4 64.695Z" fill="#FF8080"/>
<path d="M73.4499 56.75L76.845 62.19C77.3162 63.0932 77.4163 64.1446 77.124 65.1205C76.8317 66.0963 76.1701 66.9196 75.28 67.415C73.78 68.24 72.78 68.495 70.68 68.75C68.9399 68.96 67.6799 67.555 67.1249 65.335C66.5859 62.9593 66.459 60.5087 66.7499 58.09C67.1449 54.625 70.9999 53.37 73.4499 56.75Z" fill="#FAADAD"/>
<path d="M74.075 59.395C74.1902 59.0155 74.2656 58.6251 74.3 58.23C74.375 57.48 74.66 56.38 75.72 57.04C77.26 58 76.645 61.98 74.755 62.1C73.355 62.19 73.77 60.35 74.075 59.395Z" fill="#FAADAD"/>
<path d="M70.72 62.35C69.6625 62.8441 68.5305 63.16 67.37 63.285C67.4377 63.5161 67.5662 63.7248 67.7421 63.8893C67.918 64.0537 68.1349 64.168 68.37 64.22C69.285 64.5 70.63 64 70.72 62.35Z" fill="white"/>
<path d="M69.6149 66.68C71.4099 65.835 73.5549 68.345 76.2499 64.8C76.7499 64.135 76.7849 62.835 76.7499 62.075L76.83 62.19C77.2997 63.0948 77.3985 64.1469 77.1054 65.1233C76.8123 66.0997 76.1503 66.9235 75.2599 67.42C73.7599 68.24 72.7599 68.495 70.6599 68.75C70.1539 68.8074 69.642 68.7217 69.1823 68.5024C68.7227 68.2832 68.3338 67.9394 68.0599 67.51C68.4299 67.5 69.0649 66.94 69.6149 66.68Z" fill="#FF8080"/>
</g>
<defs>
<clipPath id="clip0">
<rect width="200" height="150" fill="white"/>
</clipPath>
</defs>
</svg>
