<?xml version="1.0" standalone="no"?>
<!DOCTYPE svg PUBLIC "-//W3C//DTD SVG 20010904//EN"
 "http://www.w3.org/TR/2001/REC-SVG-20010904/DTD/svg10.dtd">
<svg version="1.0" xmlns="http://www.w3.org/2000/svg"
 width="1079.000000pt" height="1000.000000pt" viewBox="0 0 1079.000000 1000.000000"
 preserveAspectRatio="xMidYMid meet">

<g transform="translate(0.000000,1000.000000) scale(0.100000,-0.100000)"
fill="#000000" stroke="none">
<path d="M6488 9440 c-36 -11 -98 -59 -98 -77 0 -7 -7 -16 -14 -19 -8 -3 -21
-31 -27 -61 -10 -42 -15 -51 -20 -37 -6 15 -7 13 -6 -8 1 -15 5 -24 9 -22 4 3
4 -4 0 -16 -4 -11 -5 -48 -2 -81 3 -33 2 -65 -2 -72 -4 -7 -8 4 -8 26 0 20 -4
37 -10 37 -5 0 -10 12 -11 28 0 15 -3 21 -6 13 -4 -10 -10 -5 -19 15 l-12 29
-2 -30 c-2 -29 -2 -29 -9 -5 -14 49 -23 -79 -15 -230 l7 -146 -27 -12 c-19 -8
-26 -18 -22 -30 3 -9 8 -62 12 -117 3 -55 8 -104 11 -110 2 -5 -3 -1 -12 10
-15 19 -15 17 -9 -31 5 -48 4 -52 -18 -58 l-23 -7 25 -10 c13 -5 40 -9 60 -7
34 3 35 4 36 48 0 25 2 77 4 115 4 62 5 58 9 -45 l6 -115 33 -1 32 -1 2 56 c1
31 3 85 3 121 2 66 14 172 21 179 2 2 27 -10 55 -27 59 -38 63 -38 89 -12 11
11 28 20 38 20 10 0 34 19 52 42 28 35 30 39 10 25 -33 -23 -76 -21 -100 3
-26 26 -25 39 3 33 19 -4 20 -3 4 7 -9 6 -22 8 -28 4 -12 -7 -59 34 -59 53 0
20 17 16 42 -11 13 -13 34 -26 48 -29 24 -6 24 -5 6 8 -11 8 -14 15 -8 15 7 0
12 5 12 10 0 6 -9 10 -20 10 -11 0 -23 7 -26 15 -4 10 -15 12 -33 9 -25 -5
-30 -2 -45 35 -9 23 -16 51 -16 63 0 20 1 20 18 5 10 -10 25 -17 32 -17 28 0
80 24 80 37 0 17 -41 33 -81 33 -28 0 -30 2 -25 28 3 15 2 51 -3 80 -9 59 -6
63 51 66 26 1 33 7 41 31 5 17 14 35 19 42 17 21 26 69 16 86 -10 18 -27 20
-70 7z m-109 -384 c17 -35 31 -72 31 -83 0 -11 7 -35 16 -52 18 -36 10 -53
-32 -65 -20 -6 -21 -1 -33 116 -7 68 -14 129 -17 136 -8 28 5 8 35 -52z m95
28 c9 -3 14 -10 11 -15 -7 -10 -35 0 -35 12 0 11 3 11 24 3z m-177 -346 c-2
-13 -4 -5 -4 17 -1 22 1 32 4 23 2 -10 2 -28 0 -40z m-40 -285 c-3 -10 -5 -2
-5 17 0 19 2 27 5 18 2 -10 2 -26 0 -35z"/>
<path d="M6623 9418 c-24 -11 -33 -58 -12 -58 7 0 9 -10 5 -25 -5 -18 -2 -25
8 -25 7 0 13 -8 12 -17 -1 -15 7 -18 46 -17 26 1 46 -2 43 -6 -3 -4 2 -10 10
-13 9 -4 14 -20 13 -49 -1 -24 2 -73 7 -110 7 -59 10 -66 21 -50 12 14 13 7 7
-48 -3 -36 -8 -82 -12 -103 l-6 -37 -37 20 c-37 20 -38 20 -48 0 -12 -22 -3
-73 12 -64 5 3 13 16 17 28 8 19 10 18 25 -18 13 -31 17 -75 17 -207 0 -93 -2
-173 -6 -179 -4 -6 7 -10 28 -10 32 0 36 3 46 38 l11 37 -5 -37 c-2 -21 0 -38
6 -38 5 0 9 32 9 71 0 44 4 68 10 64 6 -4 10 11 10 37 0 24 3 76 6 116 4 39 4
72 1 72 -6 0 -25 -72 -36 -140 -5 -27 -7 22 -5 120 5 219 17 283 35 177 6 -36
7 -31 9 38 l3 80 8 -110 c5 -60 6 -148 4 -195 -3 -47 -1 -101 3 -120 25 -104
32 412 8 550 -12 68 -14 71 -16 33 -1 -24 -4 -47 -5 -53 -1 -5 -4 -27 -5 -47
l-3 -38 -7 30 c-12 54 -22 75 -31 69 -5 -3 -9 11 -9 32 0 34 -45 124 -62 124
-3 0 -9 13 -13 29 -9 40 -81 69 -122 49z"/>
<path d="M6776 9402 c-11 -18 7 -50 30 -55 21 -4 23 -1 17 22 -3 14 -8 29 -10
34 -6 10 -31 9 -37 -1z"/>
<path d="M6606 9091 c-17 -26 44 -64 74 -46 14 9 12 28 -2 22 -7 -2 -22 0 -33
6 -19 10 -19 10 0 18 17 7 16 8 -7 8 -15 1 -29 -3 -32 -8z"/>
<path d="M6649 8946 c13 -15 -4 -26 -42 -26 -19 -1 -19 -2 -6 -10 11 -6 27 -4
51 9 33 16 34 19 17 29 -25 16 -34 15 -20 -2z"/>
<path d="M6515 8940 c3 -5 17 -10 31 -10 14 0 22 4 19 10 -3 6 -17 10 -31 10
-14 0 -22 -4 -19 -10z"/>
<path d="M6176 8577 c3 -10 9 -15 12 -12 3 3 0 11 -7 18 -10 9 -11 8 -5 -6z"/>
<path d="M6038 8400 c-7 -26 -3 -151 7 -210 3 -19 7 -55 10 -79 5 -44 5 -44
-14 -25 -13 14 -17 29 -14 57 3 24 0 37 -6 33 -5 -4 -12 -2 -15 3 -4 5 -1 13
5 17 8 5 9 3 4 -6 -6 -9 -4 -11 4 -6 7 5 10 11 6 14 -9 9 -36 11 -30 2 2 -4
-4 -15 -15 -25 -11 -10 -20 -14 -20 -9 0 5 -5 2 -10 -6 -5 -8 -22 -15 -37 -16
-77 -1 -167 -37 -146 -58 3 -3 1 -6 -5 -6 -7 0 -12 -7 -12 -15 0 -9 -7 -18
-15 -21 -8 -4 -12 -10 -9 -15 3 -5 1 -9 -4 -9 -5 0 -8 -10 -8 -22 1 -13 -1
-27 -5 -33 -4 -5 -8 -13 -8 -17 -1 -5 -1 -9 -2 -10 0 -2 -3 -14 -5 -27 -7 -37
-17 -41 -11 -5 3 21 1 31 -9 31 -7 0 -10 -5 -6 -11 3 -6 6 -20 7 -31 0 -14 6
-20 22 -19 15 1 20 -3 15 -14 -3 -10 -1 -13 6 -8 6 3 13 2 16 -3 4 -5 1 -13
-5 -17 -8 -5 -9 -3 -4 6 5 9 4 11 -4 6 -16 -11 -4 -25 18 -21 12 2 33 -12 57
-38 l39 -42 -45 40 -45 40 39 -42 c22 -23 42 -40 46 -38 4 2 22 -9 41 -25 38
-31 35 -49 -11 -79 -18 -12 -22 -13 -16 -2 7 11 6 12 -5 5 -14 -9 -19 -10 -40
-13 -5 0 -7 -7 -3 -13 5 -8 0 -7 -11 2 -17 14 -18 13 -12 -4 6 -16 5 -17 -8
-6 -8 7 -16 10 -16 6 -1 -3 -2 -9 -3 -13 -1 -5 -5 -15 -10 -23 -5 -8 -6 -12
-1 -8 4 4 15 3 25 -2 9 -5 29 -11 44 -14 15 -3 36 -14 46 -25 21 -26 26 -26
32 -3 3 10 26 35 51 56 44 36 52 39 129 43 123 7 287 3 315 -8 19 -7 34 -3 69
17 l45 27 29 -28 c15 -15 30 -25 33 -23 2 1 24 -17 48 -42 30 -31 35 -40 16
-27 -15 9 -27 13 -27 8 0 -10 -79 -55 -160 -91 -53 -23 -98 -55 -89 -64 2 -2
31 0 64 4 33 5 101 11 150 14 50 2 104 10 120 16 40 15 106 6 215 -30 90 -31
144 -38 155 -21 3 6 -11 13 -32 16 -21 3 -58 15 -83 25 -25 10 -67 22 -95 25
-63 9 -88 22 -81 42 5 13 4 14 -8 4 -12 -10 -15 -6 -21 19 -8 38 1 47 100 96
52 25 82 34 121 34 46 0 51 2 50 23 -1 16 9 27 39 42 63 31 193 123 204 144 6
10 21 21 33 25 41 11 96 108 105 185 5 43 2 50 -32 91 -44 53 -55 58 -120 59
-50 1 -67 -8 -176 -88 -18 -13 -19 -10 -12 95 4 60 8 129 8 154 l0 45 -85 1
c-108 0 -547 -12 -752 -21 -147 -6 -156 -6 -160 12 -3 14 -5 13 -10 -7z"/>
<path d="M5966 8195 c7 -18 6 -19 -12 -5 -18 14 -18 14 -5 -3 10 -12 17 -15
25 -7 7 7 6 14 -3 23 -10 10 -11 8 -5 -8z"/>
<path d="M5893 8175 c-3 -9 -3 -18 -1 -21 3 -3 8 4 11 16 6 23 -1 27 -10 5z"/>
<path d="M5927 8169 c4 -13 8 -18 11 -10 2 7 -1 18 -6 23 -8 8 -9 4 -5 -13z"/>
<path d="M5684 7964 c1 -8 4 -15 7 -16 2 -2 3 -1 2 1 -2 2 2 9 7 16 7 8 5 12
-4 12 -8 0 -13 -6 -12 -13z"/>
<path d="M2743 7744 c-17 -7 -34 -18 -38 -23 -3 -6 -15 -7 -29 -1 -12 4 -29 5
-36 0 -7 -4 -18 -6 -25 -4 -24 9 -136 -99 -167 -161 -25 -50 -66 -193 -93
-325 -36 -180 -88 -337 -138 -419 -17 -29 -18 -34 -5 -28 9 3 19 1 22 -6 3 -8
9 -7 19 6 8 9 21 17 29 17 8 0 20 6 28 13 12 10 12 9 1 -5 -11 -15 -9 -22 9
-48 12 -16 17 -30 11 -30 -6 0 -11 -13 -11 -30 0 -19 5 -30 14 -30 21 0 25 21
15 75 -5 27 -6 58 -2 69 4 12 6 29 4 39 -1 10 4 17 14 17 11 0 14 -6 9 -25 -4
-18 -2 -25 8 -25 8 0 20 -16 27 -35 10 -29 16 -34 35 -29 19 4 27 -2 46 -33
20 -34 23 -36 31 -18 4 11 8 32 8 48 1 15 4 28 9 28 4 1 18 3 30 4 13 1 36 12
50 24 44 35 136 95 150 97 6 1 19 -7 28 -19 10 -13 18 -17 21 -11 7 21 39 4
50 -27 6 -16 7 -29 2 -29 -5 0 -9 -7 -9 -15 0 -32 96 -47 123 -20 19 19 32 4
42 -50 l8 -40 7 33 c5 23 3 43 -6 60 -14 27 -13 27 21 30 38 4 41 8 20 35 -7
11 -11 26 -8 35 4 10 2 13 -5 8 -6 -4 -11 1 -11 11 -2 114 0 176 10 273 12
116 3 221 -30 346 -23 89 -84 184 -118 184 -8 0 -27 8 -41 19 -37 26 -91 32
-129 15z m-67 -157 c-4 -22 -1 -41 10 -57 l16 -25 -20 23 -20 22 -7 -29 c-8
-37 -31 -59 -47 -43 -8 8 -7 20 3 44 7 18 12 39 11 46 -2 6 3 12 10 12 7 0 19
9 26 20 18 29 25 24 18 -13z m94 -28 c-10 -17 -10 -20 2 -13 7 5 18 9 23 10 6
1 17 3 25 5 8 2 14 -2 13 -8 -2 -7 1 -13 6 -13 5 0 12 6 14 13 3 6 6 -1 7 -18
l2 -30 10 28 c11 29 28 37 28 11 0 -8 5 -12 10 -9 6 3 10 0 10 -7 0 -7 9 2 20
20 11 17 27 32 35 32 9 0 14 -4 10 -10 -3 -5 1 -26 10 -47 13 -30 14 -46 5
-90 -7 -29 -16 -51 -21 -48 -5 4 -9 -2 -9 -12 -1 -13 -5 -10 -17 11 l-15 29
-14 -24 -13 -24 -2 25 -1 25 -7 -25 -8 -25 -13 27 c-12 25 -14 26 -25 11 -10
-14 -16 -15 -27 -5 -8 6 -18 9 -21 5 -4 -3 -7 8 -7 25 0 18 -4 32 -10 32 -5 0
-10 -14 -10 -31 0 -23 -5 -32 -21 -36 -12 -3 -18 -11 -15 -19 3 -8 1 -14 -5
-14 -6 0 -1 -11 12 -24 13 -13 28 -22 35 -19 6 2 14 -3 17 -11 4 -9 1 -16 -6
-16 -8 0 -6 -4 3 -10 8 -5 30 -10 48 -10 18 0 44 -7 57 -16 l24 -16 -21 -51
c-11 -29 -21 -56 -23 -62 -13 -56 -45 -89 -132 -134 -135 -70 -237 -53 -279
47 -18 45 -30 182 -16 182 13 0 46 -57 48 -82 3 -43 27 -77 60 -88 48 -16 66
-5 24 13 -39 17 -77 53 -67 64 4 3 15 -1 25 -10 10 -10 22 -17 27 -17 4 0 -4
10 -19 21 -19 15 -24 25 -17 32 7 7 14 7 23 0 7 -6 37 -18 66 -28 29 -9 55
-22 58 -29 6 -15 133 -13 159 2 17 10 18 11 3 12 -30 0 -67 22 -74 44 -8 27
-34 56 -50 56 -9 0 -6 -12 8 -41 10 -22 17 -43 14 -46 -11 -12 -127 20 -136
37 -8 15 -4 17 33 15 61 -4 74 4 41 25 -15 10 -32 16 -39 14 -6 -3 -20 4 -30
16 -19 21 -55 27 -55 9 0 -6 5 -19 10 -30 9 -16 7 -19 -13 -19 -14 0 -30 7
-37 15 -11 13 -10 18 6 30 10 8 27 17 37 20 9 4 17 11 17 16 0 5 5 9 10 9 13
0 59 51 60 65 0 6 -11 -4 -25 -22 -30 -38 -81 -57 -129 -47 -40 7 -40 7 -50
48 -5 22 -4 27 6 23 10 -3 13 4 11 27 -2 17 1 38 7 46 9 13 14 11 34 -11 13
-15 32 -32 44 -38 26 -14 55 -14 47 -1 -3 6 -2 10 4 10 5 0 12 -4 15 -9 3 -5
17 -8 30 -8 20 0 25 6 31 33 7 40 11 41 35 12 25 -30 36 -16 42 50 5 55 -2 66
-20 30 -10 -22 -11 -22 -11 7 -1 17 11 47 26 70 27 39 44 35 23 -6z m130 -229
c0 -5 -4 -10 -10 -10 -5 0 -10 5 -10 10 0 6 5 10 10 10 6 0 10 -4 10 -10z m67
-12 c-3 -8 -6 -5 -6 6 -1 11 2 17 5 13 3 -3 4 -12 1 -19z m-21 -152 c0 -14 -6
-22 -13 -19 -9 4 -9 9 0 24 15 24 15 24 13 -5z m-16 -46 c0 -5 -7 -7 -15 -4
-8 4 -15 8 -15 10 0 2 7 4 15 4 8 0 15 -4 15 -10z"/>
<path d="M2791 7484 c0 -11 3 -14 6 -6 3 7 2 16 -1 19 -3 4 -6 -2 -5 -13z"/>
<path d="M2712 7310 c0 -14 2 -19 5 -12 2 6 2 18 0 25 -3 6 -5 1 -5 -13z"/>
<path d="M2628 7083 c6 -2 18 -2 25 0 6 3 1 5 -13 5 -14 0 -19 -2 -12 -5z"/>
<path d="M6559 7592 c6 -12 16 -24 22 -28 8 -4 8 -1 0 14 -6 12 -16 24 -22 28
-8 4 -8 1 0 -14z"/>
<path d="M5842 7404 c-18 -12 -20 -19 -12 -34 14 -27 64 -33 151 -20 41 6 107
14 147 17 40 3 75 10 78 15 7 11 -99 2 -158 -13 -33 -8 -81 -6 -146 7 -13 2
-26 13 -30 24 -7 19 -9 19 -30 4z"/>
<path d="M6258 7383 c6 -2 18 -2 25 0 6 3 1 5 -13 5 -14 0 -19 -2 -12 -5z"/>
<path d="M3150 6754 c0 -8 11 -14 25 -14 14 0 25 4 25 9 0 5 -11 11 -25 13
-17 4 -25 1 -25 -8z"/>
<path d="M2212 6735 c-36 -45 -21 -64 18 -25 14 14 18 25 12 36 -8 14 -12 12
-30 -11z"/>
<path d="M2905 6751 c-12 -12 -3 -22 17 -19 28 4 34 24 8 24 -12 0 -23 -2 -25
-5z"/>
<path d="M2280 6736 c0 -9 5 -16 10 -16 6 0 10 4 10 9 0 6 -4 13 -10 16 -5 3
-10 -1 -10 -9z"/>
<path d="M2380 6736 c0 -9 5 -16 10 -16 6 0 10 4 10 9 0 6 -4 13 -10 16 -5 3
-10 -1 -10 -9z"/>
<path d="M2751 6724 c-14 -13 -28 -21 -33 -18 -4 3 -8 -1 -8 -10 0 -11 14 -14
60 -15 33 0 68 -5 79 -10 15 -9 20 -7 25 12 9 34 8 37 -15 37 -11 0 -17 -4
-14 -10 10 -16 -11 -11 -25 6 -26 30 -44 32 -69 8z"/>
<path d="M2406 6706 c-8 -14 -12 -26 -7 -28 5 -2 12 -23 16 -47 5 -31 4 -42
-4 -37 -13 9 -14 -13 -1 -34 15 -24 24 -3 21 54 -2 53 -2 53 23 49 31 -6 32 0
5 38 -25 35 -32 36 -53 5z"/>
<path d="M2085 6711 c-3 -5 -1 -12 5 -16 12 -7 30 2 30 16 0 12 -27 12 -35 0z"/>
<path d="M2303 6647 c-1 -49 15 -65 50 -51 13 5 14 10 6 26 -6 11 -13 17 -17
13 -3 -3 -13 8 -22 26 l-17 31 0 -45z"/>
<path d="M3031 6658 c-5 -12 -6 -25 -3 -28 2 -3 7 1 9 8 3 6 11 12 20 12 17 0
13 22 -5 28 -7 2 -16 -7 -21 -20z"/>
<path d="M3173 6665 c-3 -9 -3 -19 1 -22 7 -7 36 16 36 28 0 15 -30 10 -37 -6z"/>
<path d="M3264 6665 c-9 -23 10 -40 25 -22 9 11 8 17 -4 27 -12 10 -16 9 -21
-5z"/>
<path d="M2440 6641 c0 -16 12 -41 20 -41 4 0 5 11 2 25 -4 23 -22 36 -22 16z"/>
<path d="M2892 6633 c5 -26 38 -29 38 -4 0 15 -6 21 -21 21 -14 0 -19 -5 -17
-17z"/>
<path d="M2051 6608 c0 -18 3 -26 6 -18 3 8 12 19 20 23 16 10 8 27 -13 27 -9
0 -14 -11 -13 -32z"/>
<path d="M1931 6606 c-8 -10 -7 -17 4 -26 14 -11 20 -10 40 12 l23 25 -28 1
c-16 0 -34 -5 -39 -12z"/>
<path d="M2166 6604 c-8 -21 -8 -21 14 -27 11 -3 20 -1 20 3 0 5 3 15 6 24 4
11 0 16 -14 16 -11 0 -23 -7 -26 -16z"/>
<path d="M2793 6603 c-7 -2 -13 -14 -13 -25 0 -14 5 -18 16 -14 9 3 18 6 20 6
2 0 4 9 4 20 0 20 -5 23 -27 13z"/>
<path d="M2440 6583 c0 -17 19 -35 29 -29 6 4 11 1 11 -6 0 -8 5 -6 11 5 5 9
7 22 4 27 -7 12 -55 14 -55 3z"/>
<path d="M3391 6564 c0 -11 3 -14 6 -6 3 7 2 16 -1 19 -3 4 -6 -2 -5 -13z"/>
<path d="M2052 6550 c0 -14 2 -19 5 -12 2 6 2 18 0 25 -3 6 -5 1 -5 -13z"/>
<path d="M2730 6545 c0 -8 7 -15 15 -15 8 0 15 7 15 15 0 8 -7 15 -15 15 -8 0
-15 -7 -15 -15z"/>
<path d="M3040 6541 c0 -15 6 -21 21 -21 14 0 19 5 17 17 -5 26 -38 29 -38 4z"/>
<path d="M3170 6534 c0 -31 23 -28 28 4 2 15 -2 22 -12 22 -11 0 -16 -9 -16
-26z"/>
<path d="M1900 6541 c0 -5 7 -11 15 -15 9 -3 15 0 15 9 0 8 -7 15 -15 15 -8 0
-15 -4 -15 -9z"/>
<path d="M3307 6543 c-4 -3 -7 -15 -7 -25 0 -26 24 -17 28 10 3 21 -8 29 -21
15z"/>
<path d="M5190 6523 c-149 -40 -236 -166 -247 -359 -3 -50 -2 -113 2 -140 l7
-49 24 30 c13 17 29 48 35 70 6 22 17 48 25 59 18 27 18 42 -1 26 -18 -15 -31
-7 -50 29 -30 59 1 120 45 87 13 -10 13 -9 1 7 -8 10 -20 16 -28 13 -7 -3 -13
-1 -13 5 0 16 29 22 45 9 8 -7 15 -22 15 -34 0 -11 5 -28 10 -36 8 -12 13 -11
33 8 13 12 28 22 34 22 20 0 124 50 128 63 6 13 67 15 127 2 33 -6 38 -11 44
-43 4 -19 2 -49 -5 -67 -6 -17 -11 -39 -11 -48 0 -11 -8 -17 -23 -17 -13 0
-28 -5 -35 -12 -19 -19 -14 -56 8 -63 22 -7 27 -39 8 -51 -18 -12 -60 -9 -87
5 -19 11 -22 11 -15 -1 10 -15 14 -38 8 -38 -3 0 -21 7 -41 15 l-37 16 29 24
c35 28 33 29 -19 11 -42 -14 -71 -56 -38 -53 26 2 85 -45 70 -55 -10 -6 -11
-11 0 -28 17 -28 16 -30 -19 -30 -45 0 -66 15 -103 73 -19 29 -46 63 -60 76
-37 35 -35 8 8 -77 19 -37 41 -91 49 -120 15 -48 15 -52 -1 -52 -27 1 -103 38
-157 79 -44 33 -55 37 -97 33 -26 -2 -52 -10 -59 -18 -6 -8 -25 -14 -41 -14
-53 0 -166 -150 -168 -223 0 -10 -5 -28 -12 -40 -16 -29 -19 -47 -13 -74 5
-23 5 -23 25 -3 33 33 112 19 154 -29 18 -20 18 -24 4 -54 -8 -17 -25 -77 -38
-132 -12 -55 -29 -113 -37 -128 -16 -32 -12 -42 26 -62 27 -13 29 -13 39 10
17 37 35 30 60 -20 25 -52 49 -66 163 -95 46 -11 105 -28 132 -36 39 -13 52
-13 76 -3 16 7 27 18 24 24 -5 14 31 39 67 48 14 3 54 13 90 22 36 9 75 17 87
17 19 0 24 11 38 77 10 42 36 150 59 241 l41 165 45 6 c37 5 39 6 13 7 -29 2
-33 6 -33 28 0 15 -11 77 -24 138 -34 153 -44 210 -52 290 -4 37 -10 63 -14
56 -4 -7 -7 30 -6 81 1 88 -1 99 -33 163 -23 48 -45 75 -72 94 -22 15 -58 42
-80 60 -45 36 -51 36 -129 15z m85 -93 c-3 -5 -12 -10 -20 -10 -8 0 -17 5 -20
10 -4 6 5 10 20 10 15 0 24 -4 20 -10z m49 -29 c10 -15 -74 -50 -134 -56 -55
-5 -55 -5 -20 8 19 8 51 24 70 36 37 22 75 27 84 12z m-78 -406 c10 -8 14 -15
8 -15 -5 0 -19 7 -30 15 -10 8 -14 15 -8 15 5 0 19 -7 30 -15z m261 -47 c-3
-8 -6 -5 -6 6 -1 11 2 17 5 13 3 -3 4 -12 1 -19z"/>
<path d="M2913 6523 c-7 -2 -13 -11 -13 -20 0 -20 34 -12 38 10 3 17 -3 20
-25 10z"/>
<path d="M1833 6504 c-8 -23 3 -138 22 -214 26 -108 56 -223 65 -255 5 -16 12
-52 16 -80 3 -27 10 -54 14 -60 12 -16 32 -114 27 -129 -3 -7 -2 -17 3 -22 5
-5 10 -42 12 -81 2 -40 6 -73 9 -73 3 0 11 12 18 26 8 19 17 25 31 21 28 -7
41 20 24 52 -19 36 -17 58 6 74 15 10 20 24 19 48 -2 49 -19 99 -32 99 -8 0
-8 3 -2 8 6 4 15 16 21 26 6 11 23 23 37 27 38 10 77 -37 77 -92 0 -27 4 -39
14 -39 21 0 46 -28 40 -45 -4 -9 0 -15 9 -15 21 0 37 -22 39 -56 1 -16 8 -38
15 -49 19 -29 17 -65 -4 -65 -34 0 -63 12 -63 26 0 15 -36 19 -44 5 -7 -10
-67 -22 -114 -22 -23 0 -43 -9 -64 -29 -25 -24 -28 -32 -18 -49 6 -12 17 -21
24 -21 25 0 38 -147 17 -175 -5 -5 -9 -17 -10 -25 0 -8 -5 -49 -11 -90 -11
-84 -8 -102 15 -94 11 5 15 -1 15 -19 0 -14 -4 -29 -10 -32 -5 -3 -10 -14 -10
-24 0 -10 -6 -24 -14 -30 -11 -10 -17 -8 -25 6 -9 15 -10 15 -11 2 0 -19 36
-54 81 -78 18 -10 35 -24 37 -32 3 -9 -2 -7 -17 5 -11 11 -22 17 -24 15 -10
-13 -30 -158 -34 -239 -4 -86 -1 -107 30 -215 19 -66 46 -154 61 -195 14 -41
38 -115 52 -165 14 -49 36 -121 49 -160 23 -66 46 -168 60 -263 l7 -42 384 0
c232 1 386 5 389 10 4 6 -2 10 -12 10 -11 0 -14 3 -7 8 12 8 29 52 26 65 -1 5
2 6 7 3 5 -3 11 1 14 8 3 8 1 17 -6 20 -7 2 -4 5 6 5 14 1 16 -4 11 -26 -11
-53 -15 -63 -25 -63 -5 0 -9 -5 -9 -11 0 -5 4 -7 10 -4 6 3 7 -1 4 -9 -4 -11
0 -16 13 -16 15 0 21 12 31 63 14 69 51 196 88 302 13 39 30 95 37 125 l14 54
59 4 c32 2 61 6 64 9 6 7 -237 -5 -268 -13 -13 -4 -28 -18 -33 -31 -5 -14 -15
-23 -22 -21 -20 7 -21 67 -1 89 21 23 20 25 -32 33 -32 4 -43 2 -48 -9 -7 -19
-30 -19 -46 0 -9 11 -22 14 -40 10 -38 -8 -59 16 -59 68 0 23 -4 56 -10 72
l-9 30 -2 -30 c-1 -16 -4 -24 -7 -17 -9 23 -33 13 -33 -15 0 -16 -7 -50 -15
-77 -8 -27 -15 -75 -15 -108 0 -51 -2 -58 -19 -58 -11 0 -22 9 -26 19 -3 11
-13 25 -22 33 -15 12 -16 10 -9 -15 5 -22 4 -28 -6 -25 -7 3 -14 13 -16 24 -8
56 -12 62 -32 57 -11 -3 -26 -1 -33 5 -9 8 -16 6 -25 -9 -13 -21 -47 -26 -58
-8 -3 6 -17 9 -31 6 -27 -5 -82 18 -88 37 -2 6 -6 42 -10 80 -5 59 -4 67 8 57
8 -6 17 -30 20 -52 3 -23 11 -47 17 -53 9 -8 10 -5 4 14 -4 14 -7 43 -6 66 2
30 -3 45 -18 59 -15 14 -20 15 -21 4 -2 -22 -31 93 -31 121 0 14 -8 34 -18 45
-23 26 -42 95 -30 110 11 13 -1 72 -40 187 -16 47 -30 101 -32 120 -1 18 -4
38 -7 43 -3 6 -7 21 -9 35 -1 14 -5 32 -9 40 -3 8 -7 20 -8 25 -12 50 -29 104
-40 125 -31 61 -74 168 -80 203 -8 48 13 83 62 104 30 12 47 12 105 3 66 -12
71 -14 84 -47 8 -19 19 -60 25 -91 26 -153 43 -212 60 -212 10 0 25 -10 33
-22 13 -18 16 -19 16 -5 0 9 7 17 15 17 18 0 19 -21 4 -72 -11 -41 -28 -51
-30 -18 -3 41 -4 45 -20 48 -13 2 -16 -6 -16 -37 0 -22 3 -39 7 -36 3 2 5 -10
3 -28 -4 -29 -3 -31 10 -14 18 22 29 8 23 -28 l-5 -26 122 2 c67 1 139 4 159
7 35 4 37 6 31 34 -4 23 -1 33 16 44 27 19 27 37 -1 49 -24 10 -25 25 -13 102
5 26 10 32 27 30 15 -1 23 5 29 26 4 15 3 27 -2 27 -5 0 -9 -3 -9 -8 0 -4 -9
-13 -21 -20 -20 -13 -20 -12 -14 43 11 84 6 144 -11 135 -5 -3 -7 -9 -5 -15
16 -44 16 -45 -50 -47 -35 0 -48 -3 -29 -5 91 -9 104 -24 36 -42 -30 -7 -67
-8 -117 -1 -99 13 -99 13 -99 -9 0 -20 18 -31 53 -31 18 0 19 -2 7 -10 -12 -8
-11 -10 8 -10 12 0 22 -5 22 -10 0 -7 -14 -8 -37 -4 -21 3 -42 7 -47 8 -4 0
-10 -9 -12 -21 -3 -15 1 -23 11 -23 9 0 12 6 9 15 -4 8 -1 15 5 15 6 0 11 -4
11 -10 0 -5 8 -10 18 -11 14 0 14 -2 -3 -9 -16 -7 -12 -9 18 -9 21 -1 36 -5
32 -10 -3 -5 -1 -12 5 -16 10 -6 14 -45 4 -45 -3 0 -12 7 -20 15 -9 8 -24 15
-35 15 -28 0 -59 18 -59 34 0 8 -7 16 -15 20 -8 3 -12 12 -9 21 4 10 0 15 -10
15 -11 0 -16 9 -16 26 0 14 4 23 9 20 5 -3 12 5 15 19 4 14 11 25 17 25 6 0 6
7 -1 20 -14 27 -46 26 -54 -2 l-7 -23 -10 24 c-15 37 -21 131 -9 131 5 0 10
15 10 34 0 31 -3 34 -24 30 -20 -3 -25 1 -30 27 -3 17 -6 51 -6 76 0 24 -7 60
-16 81 -29 68 -34 92 -18 92 8 0 14 9 14 20 0 13 -7 20 -19 20 -10 0 -26 11
-35 25 -15 23 -15 25 0 25 12 0 15 5 9 23 -4 12 -8 33 -10 47 -5 36 -5 36 -13
25 -4 -5 -16 -17 -26 -25 -18 -14 -19 -13 -13 2 3 10 2 20 -3 23 -22 14 -5
100 27 133 7 7 13 22 13 32 0 12 12 23 35 31 19 7 35 17 35 21 0 31 -104 -32
-110 -67 -2 -5 -6 -20 -11 -33 -5 -13 -9 -30 -9 -38 0 -8 -12 -27 -27 -41 -24
-25 -25 -28 -8 -38 43 -25 62 -52 69 -96 6 -38 4 -48 -10 -53 -9 -4 -18 -5
-19 -4 -1 2 -11 17 -23 34 -11 17 -23 43 -26 57 -2 15 -7 31 -10 35 -3 5 -8
27 -11 48 -2 21 -9 63 -13 92 -8 45 -7 52 7 52 9 0 24 -7 35 -15 17 -13 21
-12 36 8 9 12 20 31 23 42 7 19 6 18 -12 -2 -13 -16 -21 -19 -29 -11 -8 8 -15
8 -25 0 -11 -9 -25 -9 -60 2 -45 13 -47 13 -47 -5 0 -11 7 -22 15 -25 8 -4 15
-12 15 -20 0 -8 -6 -11 -15 -8 -9 4 -15 0 -15 -10 0 -8 11 -18 25 -22 27 -7
56 -44 34 -44 -7 0 -9 -10 -7 -25 3 -13 1 -22 -3 -19 -5 3 -9 1 -9 -5 0 -5 6
-14 13 -18 8 -4 21 -24 31 -43 16 -33 16 -35 -1 -47 -29 -22 -51 -16 -58 16
-4 17 -14 31 -26 34 -15 4 -19 2 -15 -10 3 -8 6 -21 6 -29 0 -8 6 -11 18 -7 9
3 1 -8 -18 -25 -37 -33 -50 -39 -50 -22 0 6 -7 10 -15 10 -11 0 -35 54 -35 82
0 14 59 35 89 30 35 -5 39 6 15 43 l-16 24 -28 -21 c-16 -11 -27 -26 -26 -32
2 -6 1 -7 -2 -3 -2 5 -14 12 -27 17 -13 5 -24 20 -28 37 -3 15 -9 36 -12 46
-11 28 50 23 80 -7 21 -21 26 -22 42 -11 17 13 17 14 1 20 -10 4 -18 18 -18
31 0 19 -5 24 -24 24 -13 0 -26 -6 -29 -12 -3 -10 -9 -10 -26 0 -11 6 -28 12
-36 12 -8 0 -15 6 -16 13 0 6 -3 23 -5 37 -2 14 -4 40 -4 58 0 19 -7 41 -15
49 -17 17 -19 60 -5 97 6 17 6 26 -1 26 -5 0 -12 -7 -16 -16z m221 -589 c4
-14 11 -25 17 -25 5 0 -7 -16 -28 -35 -21 -19 -41 -35 -44 -35 -8 0 -19 38
-19 69 0 47 63 69 74 26z m226 -12 c0 -5 -4 -14 -9 -22 -8 -12 -12 -12 -25 -2
-23 19 -20 31 9 31 14 0 25 -3 25 -7z m-211 -125 c1 -4 -9 -17 -21 -28 -16
-15 -22 -30 -19 -52 2 -20 -1 -28 -9 -23 -6 4 -9 14 -6 23 3 10 -1 28 -9 42
-12 23 -11 27 18 54 29 28 31 28 38 10 4 -10 8 -22 8 -26z m360 -443 c-1 -36
-5 -62 -9 -60 -10 6 -22 114 -14 126 14 23 24 -8 23 -66z m235 -15 c6 0 18 6
25 13 11 10 11 8 1 -12 -6 -13 -21 -26 -32 -29 -15 -4 -17 -7 -6 -13 10 -7 9
-9 -3 -9 -16 0 -29 27 -29 63 0 17 1 17 16 3 8 -9 21 -16 28 -16z m-557 -90
c-4 -28 -12 -33 -27 -15 -10 12 -10 15 4 15 10 0 14 5 11 10 -3 6 -1 10 4 10
6 0 10 -9 8 -20z m593 10 c0 -5 -2 -10 -4 -10 -3 0 -8 5 -11 10 -3 6 -1 10 4
10 6 0 11 -4 11 -10z m-104 -57 c-8 -9 -37 18 -30 28 3 5 12 2 21 -6 8 -9 13
-19 9 -22z m21 -30 c-3 -10 -5 -2 -5 17 0 19 2 27 5 18 2 -10 2 -26 0 -35z
m-516 -117 c5 3 9 -4 9 -15 0 -12 -4 -21 -9 -21 -15 0 -33 29 -25 42 6 9 9 9
12 0 2 -7 8 -10 13 -6z m115 -216 c43 -126 57 -171 70 -240 8 -41 20 -83 27
-95 17 -26 34 -91 47 -185 6 -41 13 -83 16 -92 4 -14 -1 -18 -23 -19 l-28 -1
30 -8 c22 -5 7 -8 -52 -9 -50 -1 -83 3 -83 9 0 6 -3 9 -7 9 -33 -5 -33 -2 -32
394 1 268 4 375 11 337 4 -30 15 -75 24 -100z m594 -544 c0 -64 -4 -88 -16
-100 -23 -23 -32 -20 -26 10 3 16 9 23 18 20 19 -7 18 23 -1 48 -17 23 -19 45
-5 80 19 50 30 27 30 -58z m220 -81 c0 -24 -5 -35 -15 -35 -18 0 -19 23 -3 50
17 27 18 26 18 -15z m-573 -68 c-6 -19 -22 -6 -25 20 -2 27 -2 27 13 8 8 -10
14 -23 12 -28z m676 -227 c-6 -21 -19 -33 -40 -36 -6 -1 -9 4 -6 11 2 8 10 12
18 9 7 -3 15 4 18 15 3 12 7 21 10 21 3 0 3 -9 0 -20z"/>
<path d="M1894 6496 c-4 -17 0 -35 12 -53 l17 -28 10 28 c7 21 4 32 -12 53
l-20 26 -7 -26z"/>
<path d="M2045 6500 c-3 -5 -4 -14 0 -19 3 -5 1 -13 -5 -16 -8 -5 -7 -12 2
-23 11 -13 10 -15 -10 -10 -22 6 -22 6 -3 -20 10 -15 17 -39 16 -53 -4 -31 17
-34 42 -6 17 18 17 19 -1 33 -14 10 -19 27 -20 69 0 52 -7 67 -21 45z"/>
<path d="M2168 6502 c-10 -2 -18 -12 -18 -23 0 -21 8 -23 28 -10 19 12 11 37
-10 33z"/>
<path d="M2290 6490 c0 -16 5 -21 23 -18 12 2 22 10 22 18 0 8 -10 16 -22 18
-18 3 -23 -2 -23 -18z"/>
<path d="M2808 6488 c-22 -22 -23 -38 -4 -38 8 0 17 12 20 26 9 33 5 35 -16
12z"/>
<path d="M2360 6480 c0 -19 3 -21 12 -12 9 9 9 15 0 24 -9 9 -12 7 -12 -12z"/>
<path d="M3201 6471 c-7 -5 -11 -15 -9 -22 3 -10 8 -7 17 9 13 24 12 26 -8 13z"/>
<path d="M2410 6456 c0 -8 5 -18 10 -21 6 -3 10 1 10 9 0 8 -4 18 -10 21 -5 3
-10 -1 -10 -9z"/>
<path d="M1971 6444 c0 -11 3 -14 6 -6 3 7 2 16 -1 19 -3 4 -6 -2 -5 -13z"/>
<path d="M2450 6440 c0 -13 7 -20 20 -20 13 0 20 7 20 20 0 13 -7 20 -20 20
-13 0 -20 -7 -20 -20z"/>
<path d="M3257 6420 c-4 -14 0 -20 13 -20 10 0 20 9 23 20 4 14 0 20 -13 20
-10 0 -20 -9 -23 -20z"/>
<path d="M3380 6421 c0 -11 -3 -28 -6 -38 -4 -14 -4 -15 4 -3 17 27 24 60 13
60 -6 0 -11 -9 -11 -19z"/>
<path d="M1916 6399 c3 -6 1 -14 -5 -18 -6 -4 -9 -15 -5 -24 3 -9 10 -15 14
-12 5 3 11 1 15 -5 3 -5 15 -10 26 -10 29 0 24 38 -6 52 -14 6 -25 15 -25 20
0 4 -5 8 -11 8 -5 0 -7 -5 -3 -11z"/>
<path d="M3140 6400 c-12 -8 -11 -10 8 -10 12 0 22 5 22 10 0 13 -11 13 -30 0z"/>
<path d="M2802 6388 c-18 -18 -15 -41 4 -34 9 3 18 6 20 6 8 0 4 29 -4 34 -5
3 -14 0 -20 -6z"/>
<path d="M2910 6389 c-13 -8 -13 -10 0 -19 32 -21 55 -5 27 18 -8 7 -18 7 -27
1z"/>
<path d="M8640 6379 c25 -5 71 -16 103 -25 33 -9 61 -13 64 -10 13 13 -76 39
-142 42 -66 3 -68 3 -25 -7z"/>
<path d="M1882 6360 c0 -14 2 -19 5 -12 2 6 2 18 0 25 -3 6 -5 1 -5 -13z"/>
<path d="M2391 6365 c0 -11 6 -29 14 -39 15 -20 15 -20 15 0 0 11 -7 29 -15
40 -14 19 -14 19 -14 -1z"/>
<path d="M2861 6370 c0 -8 3 -20 7 -26 11 -16 82 -37 121 -36 25 1 43 -6 61
-23 23 -21 27 -22 50 -10 25 14 25 14 -12 15 -21 0 -38 4 -38 10 0 15 -40 32
-84 34 -82 5 -87 6 -96 29 -5 12 -9 15 -9 7z"/>
<path d="M2252 6358 c-22 -22 -12 -29 18 -13 17 9 30 18 30 20 0 10 -36 5 -48
-7z"/>
<path d="M8475 6353 c-39 -11 -69 -25 -86 -44 -15 -16 -25 -29 -22 -29 3 0 0
-6 -6 -14 -21 -25 -21 -57 -1 -97 11 -21 17 -45 14 -53 -6 -16 31 -86 46 -86
4 0 11 -12 14 -26 4 -15 9 -24 12 -21 3 3 1 22 -5 42 -13 48 -1 74 32 68 15
-3 37 5 60 20 31 21 83 28 117 16 3 -1 9 -1 13 0 5 1 20 -8 34 -19 31 -24 114
-27 156 -6 15 8 27 11 27 7 0 -4 -11 -13 -25 -19 -27 -13 -30 -27 -15 -67 15
-39 34 -25 42 29 5 37 14 55 39 77 38 34 38 34 67 13 18 -12 22 -25 22 -65 0
-28 -7 -64 -16 -81 -19 -37 -14 -103 11 -127 15 -15 18 -14 42 14 14 17 22 24
18 16 -6 -10 -4 -12 4 -7 8 5 9 12 2 20 -14 16 3 41 20 30 11 -6 12 -5 2 8 -7
8 -10 18 -6 21 3 4 0 7 -8 7 -10 0 -11 2 -2 8 13 8 7 52 -7 52 -15 0 -20 32
-9 53 7 12 8 19 4 15 -5 -5 -16 10 -26 32 -10 22 -21 40 -24 40 -3 0 -3 -6 0
-12 4 -7 -1 -4 -9 6 -9 11 -16 25 -16 32 0 7 -9 15 -19 19 -11 3 -22 12 -25
20 -3 8 -12 15 -20 15 -7 0 -17 7 -20 16 -3 8 -10 12 -16 9 -6 -3 -17 1 -26 9
-9 9 -20 14 -25 11 -5 -4 -9 -2 -9 4 0 10 -22 19 -67 27 -16 3 -46 10 -68 16
-64 17 -155 17 -220 1z m500 -144 c11 -16 1 -19 -13 -3 -7 8 -8 14 -3 14 5 0
13 -5 16 -11z"/>
<path d="M2730 6344 c0 -9 7 -14 17 -12 25 5 28 28 4 28 -12 0 -21 -6 -21 -16z"/>
<path d="M3076 6352 c-9 -15 10 -33 28 -26 13 5 14 9 5 20 -13 16 -25 18 -33
6z"/>
<path d="M2477 6320 c-3 -11 -1 -20 4 -20 5 0 9 9 9 20 0 11 -2 20 -4 20 -2 0
-6 -9 -9 -20z"/>
<path d="M2445 6320 c3 -5 8 -10 11 -10 2 0 4 5 4 10 0 6 -5 10 -11 10 -5 0
-7 -4 -4 -10z"/>
<path d="M3355 6294 c-3 -20 -4 -38 -1 -41 6 -7 12 10 19 50 6 41 -10 33 -18
-9z"/>
<path d="M1950 6290 c0 -5 9 -10 20 -10 11 0 20 5 20 10 0 6 -9 10 -20 10 -11
0 -20 -4 -20 -10z"/>
<path d="M3240 6270 c0 -24 25 -27 34 -4 9 23 8 24 -14 24 -13 0 -20 -7 -20
-20z"/>
<path d="M2810 6239 c0 -14 5 -19 17 -17 26 5 29 38 4 38 -15 0 -21 -6 -21
-21z"/>
<path d="M3033 6244 c-3 -8 -1 -20 6 -27 8 -8 11 -4 11 16 0 30 -7 35 -17 11z"/>
<path d="M5010 6250 c0 -5 7 -7 15 -4 8 4 15 8 15 10 0 2 -7 4 -15 4 -8 0 -15
-4 -15 -10z"/>
<path d="M2380 6217 c0 -14 7 -28 16 -31 12 -5 15 0 12 21 -4 35 -28 43 -28
10z"/>
<path d="M2440 6201 c0 -16 6 -21 26 -21 33 0 30 33 -4 38 -17 3 -22 -2 -22
-17z"/>
<path d="M3125 6209 c-4 -6 -5 -12 -2 -15 2 -3 7 2 10 11 7 17 1 20 -8 4z"/>
<path d="M5268 6208 c16 -16 15 -25 -4 -32 -8 -3 -13 -2 -10 2 2 4 -6 7 -19 7
-17 0 -21 -3 -13 -12 5 -7 7 -16 4 -22 -6 -9 15 -21 39 -21 8 0 26 11 40 24
l26 24 -27 21 c-29 23 -57 30 -36 9z"/>
<path d="M2306 6168 c-9 -37 -7 -43 9 -22 16 21 19 44 6 44 -5 0 -11 -10 -15
-22z"/>
<path d="M2943 6173 c-17 -6 -17 -28 0 -41 19 -16 40 2 32 27 -6 21 -11 23
-32 14z"/>
<path d="M3233 6129 c1 -35 3 -38 14 -23 18 24 17 64 -1 64 -11 0 -14 -11 -13
-41z"/>
<path d="M2776 6145 c-3 -8 -1 -15 4 -15 6 0 10 7 10 15 0 8 -2 15 -4 15 -2 0
-6 -7 -10 -15z"/>
<path d="M3331 6120 l1 -45 11 33 c7 24 7 36 -1 44 -9 9 -12 1 -11 -32z"/>
<path d="M3112 6138 c-15 -15 -16 -58 -2 -58 6 0 10 6 9 13 -1 6 1 20 6 30 9
22 2 30 -13 15z"/>
<path d="M3060 6106 c0 -18 -3 -48 -6 -65 -5 -25 -3 -31 10 -31 14 0 14 -3 4
-20 -18 -29 0 -39 21 -11 14 18 25 23 45 19 14 -3 29 -1 32 3 3 5 -11 9 -30 9
-29 0 -34 3 -29 16 5 14 2 16 -19 11 -25 -7 -25 -6 -17 36 11 56 11 67 -1 67
-5 0 -10 -15 -10 -34z"/>
<path d="M8988 6113 c5 -21 7 -23 10 -9 2 10 0 22 -6 28 -6 6 -7 0 -4 -19z"/>
<path d="M2741 6114 c0 -11 3 -14 6 -6 3 7 2 16 -1 19 -3 4 -6 -2 -5 -13z"/>
<path d="M2830 6100 c0 -13 7 -20 20 -20 13 0 20 7 20 20 0 13 -7 20 -20 20
-13 0 -20 -7 -20 -20z"/>
<path d="M2370 6076 c0 -15 8 -30 20 -36 18 -9 20 -8 20 14 0 15 -8 30 -20 36
-18 9 -20 8 -20 -14z"/>
<path d="M2435 6070 c-8 -14 4 -68 17 -76 6 -4 8 1 3 15 -5 15 -2 21 9 21 10
0 16 9 16 25 0 18 -5 25 -19 25 -11 0 -23 -5 -26 -10z"/>
<path d="M2751 6035 c-1 -27 -5 -56 -10 -64 -7 -10 -4 -19 7 -27 15 -11 15
-17 5 -44 -10 -26 -10 -35 1 -46 11 -11 15 -5 20 36 4 27 2 68 -4 92 -5 24
-11 57 -13 73 -3 18 -5 11 -6 -20z"/>
<path d="M8961 6060 c14 -31 19 -36 19 -24 0 6 -7 19 -16 30 -14 18 -14 18 -3
-6z"/>
<path d="M9060 6070 c0 -5 5 -10 11 -10 5 0 7 5 4 10 -3 6 -8 10 -11 10 -2 0
-4 -4 -4 -10z"/>
<path d="M3013 6038 c-21 -27 -21 -34 -2 -35 14 -1 19 5 19 23 0 27 -3 29 -17
12z"/>
<path d="M2203 6015 c0 -8 4 -15 9 -15 4 0 8 4 8 9 0 6 -4 12 -8 15 -5 3 -9
-1 -9 -9z"/>
<path d="M3316 6008 c-5 -16 -5 -36 0 -45 7 -16 8 -15 11 5 3 12 3 32 0 45 -3
21 -4 20 -11 -5z"/>
<path d="M3210 6010 c0 -5 -8 -10 -17 -10 -12 0 -9 -5 10 -15 31 -16 61 -10
53 12 -3 8 -6 17 -6 19 0 2 -9 4 -20 4 -11 0 -20 -4 -20 -10z"/>
<path d="M8601 5990 c-30 -17 -67 -30 -83 -30 -16 0 -31 -6 -34 -14 -3 -8 -18
-16 -35 -20 -23 -4 -29 -11 -29 -30 0 -15 8 -30 20 -36 11 -6 18 -15 15 -20
-7 -11 27 -30 54 -30 25 0 56 44 47 66 -4 9 -1 23 5 30 9 11 8 14 -4 14 -8 0
-17 -5 -19 -12 -3 -8 -11 -7 -28 5 -14 9 -20 17 -15 17 6 0 27 4 47 9 22 5 36
5 32 0 -7 -12 82 -99 103 -99 10 0 29 -12 42 -25 13 -14 19 -25 14 -25 -5 0
-9 -9 -9 -20 0 -19 1 -19 22 1 l21 20 11 -28 c17 -42 18 -99 1 -114 -25 -25
-49 -19 -56 12 -3 16 -12 29 -19 29 -8 0 -13 5 -11 12 1 8 -9 11 -30 9 -23 -2
-35 3 -45 18 -7 12 -18 21 -25 21 -7 0 -13 5 -13 11 0 7 7 8 18 4 29 -13 57
-11 57 3 0 8 8 19 18 26 9 7 17 16 17 20 0 13 -28 5 -45 -14 -23 -26 -80 -27
-94 -2 -10 16 -10 16 -11 -1 0 -23 24 -70 64 -125 81 -112 77 -110 163 -92 42
9 53 17 80 58 16 26 34 58 38 72 4 14 18 39 30 55 19 26 21 34 10 48 -13 18
-31 24 -20 7 3 -5 3 -10 -2 -10 -4 0 -24 -23 -43 -50 -39 -55 -60 -63 -60 -25
0 43 -27 93 -59 109 -26 14 -29 20 -24 50 7 43 -10 73 -50 90 -20 9 -25 15
-14 15 9 1 17 6 17 11 0 15 -10 12 -69 -20z m72 -301 c7 0 3 -4 -8 -8 -22 -9
-35 -5 -35 11 0 5 7 7 16 4 9 -3 21 -6 27 -7z"/>
<path d="M2987 5984 c-4 -4 -7 -17 -7 -29 0 -29 41 -31 58 -4 10 16 9 19 -8
19 -11 0 -20 -6 -21 -12 -1 -7 -4 -3 -8 10 -3 13 -9 20 -14 16z"/>
<path d="M2460 5960 c6 -11 12 -20 14 -20 2 0 2 9 -1 20 -3 11 -9 20 -15 20
-5 0 -4 -9 2 -20z"/>
<path d="M2857 5963 c-4 -3 -7 -15 -7 -25 0 -10 -7 -18 -15 -18 -8 0 -15 -9
-15 -20 0 -11 5 -20 11 -20 6 0 13 9 16 20 3 11 14 20 24 20 14 0 19 7 19 25
0 24 -18 34 -33 18z"/>
<path d="M3070 5940 c0 -5 -9 -19 -20 -30 -18 -18 -18 -20 -2 -20 9 0 22 -10
27 -22 6 -13 19 -24 30 -25 l20 -3 -20 9 c-16 8 -17 10 -3 10 11 1 15 7 11 21
-4 15 0 20 13 21 11 0 5 5 -13 10 -22 7 -31 14 -27 24 4 8 1 15 -5 15 -6 0
-11 -4 -11 -10z"/>
<path d="M3226 5942 c-3 -6 -1 -14 5 -17 15 -10 25 3 12 16 -7 7 -13 7 -17 1z"/>
<path d="M2370 5921 c0 -22 25 -39 38 -27 8 8 -10 38 -26 44 -7 2 -12 -6 -12
-17z"/>
<path d="M2430 5901 c0 -26 17 -36 23 -14 4 17 5 17 6 1 0 -10 8 -18 17 -18
10 0 14 7 12 23 -4 30 -58 39 -58 8z"/>
<path d="M2990 5890 c-9 -6 -10 -10 -3 -10 6 0 15 5 18 10 8 12 4 12 -15 0z"/>
<path d="M3220 5882 c0 -4 -15 -7 -32 -5 -32 3 -32 3 -8 -8 14 -6 33 -15 42
-20 29 -15 40 -10 36 13 -3 21 -38 40 -38 20z"/>
<path d="M3005 5857 c-30 -18 -32 -24 -27 -78 3 -34 1 -49 -7 -49 -7 0 -9 -5
-6 -11 4 -5 -3 -19 -16 -30 -20 -18 -21 -20 -6 -32 12 -8 19 -35 23 -84 4 -40
11 -73 16 -73 6 0 7 14 3 31 -9 39 4 49 62 49 23 0 45 5 48 10 3 6 32 10 63
10 61 0 102 -19 102 -48 0 -13 3 -13 12 -4 8 8 9 15 3 20 -6 4 -10 22 -10 41
0 20 -6 36 -14 39 -10 3 -12 -2 -7 -22 6 -26 6 -26 -41 -19 -52 6 -93 22 -60
23 15 0 15 2 -4 21 -23 23 -55 18 -64 -12 -7 -22 -35 -26 -35 -5 0 9 -7 12
-21 9 -16 -4 -17 -8 -7 -14 9 -6 7 -9 -8 -9 -12 0 -24 6 -27 13 -6 17 8 95 24
130 10 22 15 25 27 14 13 -10 15 -9 9 5 -3 9 -1 19 6 22 17 7 -12 26 -30 19
-7 -3 -13 0 -13 6 0 6 6 11 13 11 7 0 22 7 33 15 19 14 19 14 -1 14 -11 0 -29
-6 -40 -12z"/>
<path d="M3077 5814 c3 -8 12 -13 20 -10 8 3 17 6 19 6 3 0 2 5 -1 10 -11 17
-45 12 -38 -6z"/>
<path d="M2227 5805 c3 -8 9 -12 14 -9 12 7 11 11 -5 17 -10 4 -13 1 -9 -8z"/>
<path d="M2860 5790 c0 -22 4 -28 15 -24 8 4 15 17 15 30 0 15 -6 24 -15 24
-10 0 -15 -10 -15 -30z"/>
<path d="M2769 5775 c-5 -78 0 -147 10 -141 12 8 12 138 0 157 -6 10 -9 6 -10
-16z"/>
<path d="M3227 5780 c7 -25 17 -32 38 -24 15 6 14 8 -1 25 -23 25 -44 25 -37
-1z"/>
<path d="M2370 5771 c0 -11 5 -32 11 -48 8 -22 12 -24 19 -13 15 24 12 67 -6
74 -23 9 -24 8 -24 -13z"/>
<path d="M3080 5779 c0 -5 9 -9 20 -9 11 0 20 2 20 4 0 2 -9 6 -20 9 -11 3
-20 1 -20 -4z"/>
<path d="M2432 5748 c2 -17 10 -23 28 -23 18 0 26 6 28 23 3 19 -1 22 -28 22
-27 0 -31 -3 -28 -22z"/>
<path d="M2165 5740 c5 -8 1 -19 -11 -27 -19 -14 -19 -15 1 -12 11 1 28 -1 38
-6 9 -4 29 -4 45 0 l27 7 -25 11 c-14 6 -27 14 -30 18 -3 3 -16 10 -29 14 -18
5 -22 4 -16 -5z"/>
<path d="M3020 5739 c0 -5 5 -7 10 -4 6 3 10 8 10 11 0 2 -4 4 -10 4 -5 0 -10
-5 -10 -11z"/>
<path d="M3088 5743 c6 -2 18 -2 25 0 6 3 1 5 -13 5 -14 0 -19 -2 -12 -5z"/>
<path d="M3250 5740 c-12 -8 -9 -10 13 -10 16 0 26 4 22 10 -8 12 -16 12 -35
0z"/>
<path d="M2115 5710 c-8 -13 3 -30 18 -29 9 0 9 2 0 5 -7 3 -9 12 -6 20 6 16
-3 19 -12 4z"/>
<path d="M3090 5690 c0 -5 9 -10 20 -10 11 0 20 5 20 10 0 6 -9 10 -20 10 -11
0 -20 -4 -20 -10z"/>
<path d="M3255 5670 c3 -5 8 -10 11 -10 2 0 4 5 4 10 0 6 -5 10 -11 10 -5 0
-7 -4 -4 -10z"/>
<path d="M2820 5656 c-13 -17 -7 -46 9 -46 5 0 12 8 14 18 4 13 5 11 6 -5 1
-14 7 -23 17 -23 11 0 14 8 12 28 -2 16 -9 27 -18 27 -8 0 -18 4 -21 8 -3 4
-11 1 -19 -7z"/>
<path d="M3290 5663 c0 -6 -3 -18 -6 -27 -3 -9 -2 -16 4 -16 15 0 21 25 11 41
-5 9 -9 9 -9 2z"/>
<path d="M5938 5621 c-136 -9 -250 -20 -254 -24 -4 -4 -1 -7 7 -8 8 0 32 -1
54 -2 27 -2 39 -7 37 -15 -1 -8 2 -11 8 -7 6 3 8 10 5 15 -7 11 13 16 64 16
31 -1 46 -6 48 -16 4 -13 3 -13 -6 0 -10 13 -11 13 -11 0 0 -12 -2 -12 -9 -2
-6 11 -10 10 -15 -4 -4 -10 -4 -15 0 -12 3 4 14 -1 23 -10 9 -10 13 -13 9 -8
-16 20 -7 28 12 11 11 -10 17 -21 15 -26 -3 -4 -1 -10 4 -13 10 -6 10 11 0 29
-9 16 -5 45 6 47 6 2 10 -9 10 -24 1 -15 4 -30 8 -34 4 -4 7 -2 7 5 0 7 5 9
10 6 6 -4 7 -11 4 -17 -4 -7 -2 -8 5 -4 6 4 9 12 6 17 -4 5 1 9 9 9 9 0 15 -5
14 -12 -2 -7 2 -12 7 -13 6 0 15 -4 22 -8 6 -4 15 -2 19 4 5 8 8 8 14 -1 5 -8
9 -8 13 3 4 10 0 14 -11 12 -9 -1 -23 2 -29 8 -7 5 -13 6 -13 1 0 -12 -20 19
-20 31 0 7 3 7 8 0 4 -5 16 -17 26 -25 18 -14 18 -13 12 10 l-7 25 15 -25 c9
-15 15 -19 16 -10 0 18 25 -16 33 -45 4 -18 5 -18 6 3 0 12 6 22 12 22 8 0 7
5 -1 16 -11 12 -11 15 1 12 8 -2 13 3 11 10 -1 8 2 11 8 7 7 -4 7 -12 2 -18
-10 -14 -9 -24 6 -57 9 -22 11 -23 13 -5 1 11 1 24 0 28 -1 5 3 6 9 2 6 -4 5
-17 -4 -38 -7 -18 -12 -40 -10 -50 1 -11 0 -16 -3 -13 -8 8 -74 -45 -68 -55 3
-4 -3 -6 -15 -4 -11 2 -22 0 -25 -5 -3 -5 -15 -7 -26 -5 -15 3 -19 0 -15 -11
3 -9 2 -12 -5 -9 -6 4 -8 13 -5 21 3 8 0 11 -9 7 -8 -3 -12 -9 -9 -14 3 -5 -2
-6 -11 -3 -14 6 -14 8 2 20 14 11 14 14 3 12 -8 -2 -14 2 -13 8 1 6 -5 11 -12
11 -11 0 -12 -4 -4 -14 14 -17 -3 -17 -20 0 -10 10 -11 8 -5 -7 6 -15 4 -17
-6 -11 -9 6 -12 4 -8 -7 4 -8 0 -15 -8 -15 -7 0 -11 4 -9 8 3 4 -2 10 -11 13
-8 3 -13 10 -10 14 3 5 -1 9 -9 9 -13 0 -13 -3 0 -17 14 -16 14 -18 0 -24 -9
-3 -13 -2 -10 3 3 5 1 12 -4 15 -5 3 -12 -1 -15 -10 -5 -13 -9 -14 -20 -5 -11
10 -15 8 -19 -6 -4 -17 -5 -17 -6 1 -1 16 -3 17 -18 5 -9 -8 -14 -9 -10 -3 3
6 0 11 -8 11 -10 0 -11 -5 -4 -18 8 -15 5 -17 -17 -13 -18 3 -23 1 -18 -7 5
-8 3 -9 -7 -3 -23 14 -39 13 -39 -3 0 -13 2 -14 18 -2 16 13 16 12 3 -4 -12
-15 -17 -16 -25 -5 -6 7 -20 20 -31 28 -18 14 -19 13 -8 -1 10 -12 10 -18 1
-27 -9 -9 -9 -12 -1 -12 6 0 13 5 15 12 3 8 6 7 10 -3 4 -9 -2 -21 -14 -28
-11 -7 -17 -8 -13 -2 3 6 2 11 -4 11 -5 0 -15 -8 -20 -17 -6 -11 -11 -13 -11
-5 0 7 -5 10 -10 7 -6 -4 -8 -11 -4 -16 3 -5 0 -8 -8 -7 -7 2 -12 -4 -12 -13
1 -11 -5 -15 -17 -12 -11 3 -19 0 -19 -6 0 -7 4 -10 9 -6 5 3 13 0 17 -6 5 -8
3 -9 -6 -4 -10 6 -12 4 -7 -9 10 -25 -2 -40 -19 -25 -12 10 -13 9 -8 -6 6 -14
4 -16 -6 -10 -10 6 -12 4 -7 -8 4 -10 2 -17 -4 -17 -6 0 -8 -7 -5 -16 3 -8 2
-12 -3 -9 -5 3 -12 -4 -16 -15 -4 -11 -11 -17 -17 -14 -7 5 -9 1 -5 -9 7 -19
-12 -27 -65 -27 -36 0 -49 -7 -102 -56 -34 -31 -69 -63 -78 -71 -14 -13 -24
-14 -62 -4 -25 6 -65 11 -89 11 -59 0 -156 19 -187 36 -26 15 -171 53 -280 74
-89 18 -99 24 -106 71 -6 36 -8 39 -18 23 -24 -44 -23 -103 4 -125 10 -9 47
-19 82 -23 111 -12 331 -66 392 -96 34 -18 40 -18 59 -5 24 17 61 20 52 5 -8
-13 11 -13 36 1 12 6 34 7 52 3 l32 -7 -40 -14 c-22 -8 -58 -13 -80 -11 -57 4
-53 -14 8 -37 28 -11 63 -27 77 -36 14 -9 57 -24 96 -34 63 -16 76 -17 118 -4
55 16 89 44 134 111 53 78 125 132 241 181 121 52 210 77 271 77 36 0 48 -6
82 -40 l40 -40 34 26 c19 15 34 34 34 43 0 9 32 134 70 279 39 144 70 265 70
267 0 8 -119 3 -382 -14z m56 -46 c3 3 2 0 -4 -7 -5 -6 -17 -13 -25 -14 -12
-2 -13 1 -6 10 6 7 7 17 3 22 -4 4 0 3 9 -4 9 -6 19 -10 23 -7z"/>
<path d="M2430 5584 c0 -22 4 -25 28 -22 19 2 27 9 27 22 0 25 -22 32 -28 9
-4 -17 -5 -17 -6 0 -2 27 -21 20 -21 -9z"/>
<path d="M5835 5582 c3 -3 -2 -16 -10 -29 -22 -33 -10 -29 14 5 16 22 17 29 5
29 -7 0 -12 -3 -9 -5z"/>
<path d="M2858 5543 c7 -3 16 -2 19 1 4 3 -2 6 -13 5 -11 0 -14 -3 -6 -6z"/>
<path d="M2890 5530 c-19 -12 -2 -63 23 -68 15 -3 18 2 15 34 -3 40 -14 49
-38 34z"/>
<path d="M6091 5505 c-2 -16 -5 -24 -8 -17 -8 20 -20 14 -19 -10 1 -14 -4 -22
-12 -20 -8 1 -11 -2 -7 -8 4 -7 13 -7 26 1 25 13 32 30 26 61 -4 19 -5 18 -6
-7z"/>
<path d="M2435 5510 c3 -5 13 -10 21 -10 8 0 14 5 14 10 0 6 -9 10 -21 10 -11
0 -17 -4 -14 -10z"/>
<path d="M5993 5505 c0 -8 4 -12 9 -9 5 3 6 10 3 15 -9 13 -12 11 -12 -6z"/>
<path d="M2839 5483 c-2 -49 -7 -67 -22 -78 -19 -14 -23 -35 -6 -35 10 0 59
100 59 120 0 18 -30 10 -31 -7z"/>
<path d="M6134 5479 c0 -10 6 -19 13 -19 7 0 13 4 13 9 0 5 -6 13 -13 19 -10
8 -13 6 -13 -9z"/>
<path d="M8731 5473 c-5 -10 -12 -49 -16 -88 -6 -60 -5 -67 6 -52 8 9 28 21
44 25 41 11 43 36 5 73 -17 18 -29 38 -26 45 8 20 -2 17 -13 -3z"/>
<path d="M6099 5453 c-13 -16 -12 -17 4 -4 16 13 21 21 13 21 -2 0 -10 -8 -17
-17z"/>
<path d="M6132 5441 c2 -18 -3 -24 -10 -13 -6 9 -12 5 -20 -15 -11 -24 -10
-26 1 -11 8 10 16 15 19 13 3 -3 12 3 21 13 14 15 14 19 3 19 -8 0 -15 -3 -14
-6z"/>
<path d="M8914 5434 c3 -9 6 -24 6 -35 0 -10 5 -19 10 -19 6 0 10 16 10 35 0
25 -4 35 -16 35 -11 0 -14 -5 -10 -16z"/>
<path d="M3240 5416 c0 -9 5 -16 10 -16 6 0 10 4 10 9 0 6 -4 13 -10 16 -5 3
-10 -1 -10 -9z"/>
<path d="M5983 5405 c0 -8 4 -12 9 -9 5 3 6 10 3 15 -9 13 -12 11 -12 -6z"/>
<path d="M6068 5393 c5 -21 7 -23 10 -9 2 10 0 22 -6 28 -6 6 -7 0 -4 -19z"/>
<path d="M2912 5378 c2 -25 8 -34 26 -36 26 -4 30 22 8 51 -21 28 -38 21 -34
-15z"/>
<path d="M2978 5397 c-5 -10 -8 -34 -8 -53 0 -26 -5 -37 -22 -43 -18 -6 -19
-9 -5 -14 19 -7 22 -38 6 -54 -9 -9 -8 -21 5 -48 18 -38 14 -52 -23 -81 -8 -6
-11 -15 -8 -21 7 -11 -22 -11 -40 0 -7 4 -15 27 -18 52 -9 55 -25 78 -48 69
-21 -8 -22 -18 -2 -38 8 -8 15 -19 15 -25 0 -6 4 -11 9 -11 6 0 11 -17 13 -37
l3 -38 55 0 55 0 0 -85 c-1 -47 -4 -103 -7 -125 l-6 -40 15 35 c11 23 18 84
23 180 7 161 -1 406 -12 377z"/>
<path d="M6044 5385 c0 -13 3 -22 7 -19 8 4 6 30 -2 38 -3 3 -5 -5 -5 -19z"/>
<path d="M5824 5385 c-3 -8 -4 -20 -2 -27 3 -7 7 -1 10 15 6 29 1 36 -8 12z"/>
<path d="M2855 5349 c-4 -6 -5 -12 -2 -15 2 -3 7 2 10 11 7 17 1 20 -8 4z"/>
<path d="M8577 5312 c-14 -15 -14 -19 -3 -19 8 0 17 9 19 19 3 10 4 18 3 18
-2 0 -10 -8 -19 -18z"/>
<path d="M3262 5291 c2 -14 9 -26 16 -29 17 -5 15 10 -3 34 -15 18 -15 18 -13
-5z"/>
<path d="M5546 5288 c3 -5 10 -6 15 -3 13 9 11 12 -6 12 -8 0 -12 -4 -9 -9z"/>
<path d="M5571 5278 c-6 -10 -14 -17 -19 -15 -4 1 -8 -2 -9 -7 -1 -5 -7 -13
-15 -17 -7 -5 -8 -9 -2 -9 6 0 21 11 34 25 12 13 26 22 30 20 5 -3 10 1 13 8
8 20 -19 16 -32 -5z"/>
<path d="M2510 5270 c8 -5 22 -9 30 -9 10 0 8 3 -5 9 -27 12 -43 12 -25 0z"/>
<path d="M8504 5258 l-19 -23 23 19 c21 18 27 26 19 26 -2 0 -12 -10 -23 -22z"/>
<path d="M8719 5243 c4 -15 13 -28 19 -29 7 -1 8 0 2 3 -5 2 -10 13 -10 23 0
10 -4 21 -9 24 -5 4 -6 -5 -2 -21z"/>
<path d="M9341 5252 c0 -7 4 -22 10 -33 6 -12 15 -82 20 -157 11 -178 25 -281
40 -316 12 -25 16 -27 53 -20 22 3 50 13 63 21 20 14 21 16 5 34 -9 10 -27 19
-40 19 -16 0 -27 9 -37 33 l-13 32 -4 -35 -3 -35 -19 50 c-13 37 -19 86 -22
190 -4 131 -15 195 -34 195 -5 0 -11 8 -13 18 -3 9 -5 11 -6 4z"/>
<path d="M2892 5204 c2 -11 11 -20 22 -22 13 -3 17 1 14 14 -2 11 -11 20 -22
22 -13 3 -17 -1 -14 -14z"/>
<path d="M5516 5177 c3 -10 9 -15 12 -12 3 3 0 11 -7 18 -10 9 -11 8 -5 -6z"/>
<path d="M4461 5164 c0 -11 3 -14 6 -6 3 7 2 16 -1 19 -3 4 -6 -2 -5 -13z"/>
<path d="M3301 5155 c0 -11 6 -31 14 -45 18 -32 19 -5 0 35 -10 23 -13 25 -14
10z"/>
<path d="M3220 5135 c0 -16 6 -25 15 -25 9 0 15 9 15 25 0 16 -6 25 -15 25 -9
0 -15 -9 -15 -25z"/>
<path d="M8536 5001 c-14 -46 -17 -78 -13 -121 5 -40 2 -72 -8 -101 -8 -23
-15 -43 -15 -44 0 -5 99 -35 114 -35 21 0 21 5 -14 112 -16 51 -30 108 -31
128 0 19 -4 55 -7 80 l-7 44 -19 -63z"/>
<path d="M6250 4931 c0 -6 4 -13 10 -16 6 -3 7 1 4 9 -7 18 -14 21 -14 7z"/>
<path d="M6264 4875 c-7 -27 -24 -34 -24 -10 0 8 -4 15 -10 15 -18 0 -10 -24
19 -63 l29 -38 4 56 c3 60 -7 83 -18 40z"/>
<path d="M2942 4760 c-6 -22 -12 -47 -12 -55 0 -8 -11 -47 -24 -85 -23 -65
-22 -88 1 -57 13 16 20 43 38 146 17 92 16 111 -3 51z"/>
<path d="M5782 4728 c3 -7 19 -17 36 -22 18 -5 32 -13 32 -18 0 -5 -4 -7 -9
-4 -5 3 -25 -1 -44 -9 -34 -14 -51 -14 -202 -1 -22 2 -48 1 -58 -3 -28 -10 32
-29 128 -39 99 -12 183 -48 217 -93 25 -34 48 -99 48 -135 0 -11 7 -32 15 -48
16 -30 18 -109 3 -100 -4 3 -8 -8 -8 -23 0 -16 -7 -38 -15 -50 -8 -12 -12 -28
-9 -37 3 -9 1 -16 -5 -16 -6 0 -11 7 -11 16 0 12 -6 9 -21 -10 -11 -14 -25
-23 -30 -20 -6 3 -17 -2 -25 -12 -9 -11 -13 -14 -9 -7 4 9 -4 9 -34 -2 -21 -7
-42 -11 -46 -7 -3 3 -3 -2 1 -12 5 -14 4 -17 -5 -12 -6 4 -23 0 -36 -8 -14 -9
-25 -14 -25 -11 0 3 -14 -1 -30 -10 -34 -18 -83 -22 -120 -10 -40 13 -122 8
-164 -10 -21 -9 -45 -14 -52 -11 -8 3 -14 1 -14 -4 0 -6 -10 -10 -22 -10 -23
1 -23 1 2 15 14 8 33 14 43 15 10 0 15 5 12 10 -4 6 -11 8 -16 5 -5 -4 -9 -1
-9 6 0 9 -3 9 -14 0 -14 -12 -46 -5 -46 10 0 5 -16 3 -35 -5 -36 -16 -44 -10
-22 14 6 8 0 4 -15 -9 -20 -17 -28 -20 -28 -10 0 9 -3 10 -8 4 -11 -16 -92
-11 -103 6 -7 11 -9 11 -9 -3 0 -10 -4 -18 -10 -18 -5 0 -10 5 -10 10 0 6 -6
10 -13 10 -23 0 -15 30 10 36 22 6 22 7 6 19 -15 11 -16 16 -5 27 11 11 12 10
7 -4 -4 -10 -3 -18 3 -18 18 0 6 33 -14 41 -10 4 -14 8 -9 9 6 0 3 5 -5 9 -9
6 -48 5 -95 0 -44 -5 -96 -8 -115 -7 -20 1 -41 -1 -48 -6 -9 -5 -10 -1 -2 18
7 21 6 27 -8 35 -11 6 -24 6 -35 0 -11 -7 -17 -6 -17 1 0 5 5 10 12 10 23 0
-4 15 -29 15 -21 1 -22 -1 -9 -11 9 -6 16 -15 16 -19 0 -5 -9 0 -20 10 -11 10
-20 24 -20 32 0 7 -8 13 -17 13 -15 0 -16 -2 -3 -10 8 -5 10 -10 4 -10 -7 0
-19 11 -28 25 -10 15 -26 25 -40 25 -34 0 -55 10 -66 30 -7 13 -6 19 4 23 9 4
12 0 9 -12 -3 -11 2 -21 13 -25 14 -5 15 -4 5 8 -6 8 -10 20 -9 27 2 8 -3 13
-9 12 -16 -4 -17 9 -1 25 9 9 7 16 -7 32 -18 20 -13 25 22 21 6 -1 14 3 18 9
5 9 -15 15 -38 11 -5 -1 -6 3 -3 8 3 5 16 7 28 3 l22 -5 -21 23 c-12 12 -28
20 -36 17 -11 -4 -13 0 -9 16 5 19 3 20 -10 9 -13 -10 -19 -10 -31 3 -9 8 -20
15 -24 14 -19 -3 -33 2 -33 12 0 8 6 7 17 -2 15 -13 15 -12 3 8 -12 18 -17 20
-29 10 -12 -9 -13 -9 -7 1 4 6 2 12 -3 12 -6 0 -11 4 -11 10 0 5 7 7 15 4 8
-4 15 -1 15 5 0 6 -3 10 -7 10 -20 -3 -34 2 -28 11 3 5 0 7 -9 4 -8 -3 -12
-13 -9 -22 4 -13 3 -14 -5 -3 -7 10 -11 10 -17 1 -5 -8 -12 -4 -23 12 -9 13
-16 27 -14 31 1 4 -7 3 -18 -3 -11 -6 -20 -13 -20 -16 0 -3 6 -2 13 2 10 6 10
4 0 -7 -7 -7 -13 -22 -13 -33 0 -12 -7 -40 -15 -63 -13 -39 -13 -45 11 -104
56 -137 172 -327 263 -430 46 -53 35 -50 286 -76 247 -26 874 -24 1180 4 l220
20 34 -25 c37 -27 29 -42 -23 -42 -43 0 -27 -9 56 -31 131 -34 192 -47 250
-54 l57 -6 7 47 c5 33 3 49 -5 52 -6 2 -9 8 -6 12 3 5 -5 18 -17 29 -12 12
-18 21 -14 21 17 0 -21 27 -49 35 -48 14 -184 12 -190 -2 -6 -18 -41 -16 -105
7 -71 25 -64 53 26 106 22 13 57 42 76 63 25 28 51 44 88 55 67 20 83 20 121
0 51 -26 42 -10 -11 22 -42 25 -50 34 -50 60 0 43 44 126 79 147 38 22 52 22
79 -3 31 -29 44 -26 31 7 -10 27 -26 43 -43 43 -5 0 -3 -6 3 -14 10 -12 6 -13
-28 -9 -34 5 -43 2 -64 -21 -35 -38 -59 -91 -66 -149 l-6 -50 -100 75 c-132
99 -195 157 -263 242 -76 96 -129 146 -176 168 -45 21 -59 23 -54 6z m-813
-587 c10 -6 2 -9 -25 -10 -21 0 -61 -3 -89 -7 -60 -7 -56 3 6 15 60 12 91 12
108 2z m-9 -92 c0 -6 -4 -7 -10 -4 -5 3 -10 11 -10 16 0 6 5 7 10 4 6 -3 10
-11 10 -16z m-40 1 c0 -5 -5 -10 -11 -10 -5 0 -7 5 -4 10 3 6 8 10 11 10 2 0
4 -4 4 -10z m906 -65 c-23 -18 -36 -19 -36 -4 0 5 4 8 8 5 4 -2 14 -1 22 5 23
14 27 10 6 -6z m-884 -2 c-12 -2 -20 -8 -17 -13 3 -4 -4 -6 -16 -3 -27 8 -4
23 31 21 24 -1 24 -1 2 -5z m293 -3 c-3 -6 -14 -10 -23 -10 -10 0 -40 -6 -68
-13 -52 -14 -74 -12 -74 4 0 6 4 8 9 4 5 -3 12 -2 15 3 3 5 20 7 38 6 18 -1
38 1 45 5 20 11 65 12 58 1z m535 -5 c0 -2 -6 -5 -13 -8 -8 -3 -14 1 -14 8 0
7 6 11 14 8 7 -3 13 -6 13 -8z m-56 -4 c-2 -3 -11 -6 -18 -7 -8 -1 -37 -7 -66
-13 -62 -13 -96 -14 -64 -1 12 5 36 11 54 13 17 3 34 8 38 11 3 3 18 5 33 4
16 -1 26 -4 23 -7z m-656 -16 c-6 -6 -46 -9 -68 -5 -8 2 3 6 25 9 40 7 53 5
43 -4z m1326 -41 c4 -11 2 -12 -14 -1 -11 6 -20 15 -20 19 0 12 28 -3 34 -18z"/>
<path d="M4231 4674 c0 -11 3 -14 6 -6 3 7 2 16 -1 19 -3 4 -6 -2 -5 -13z"/>
<path d="M4261 4636 c-7 -8 -8 -17 -3 -20 6 -3 15 1 21 8 7 8 8 17 3 20 -6 3
-15 -1 -21 -8z"/>
<path d="M2360 4607 c0 -19 16 -31 24 -18 3 5 -1 14 -9 21 -12 10 -15 10 -15
-3z"/>
<path d="M8428 4583 c7 -3 16 -2 19 1 4 3 -2 6 -13 5 -11 0 -14 -3 -6 -6z"/>
<path d="M8346 4561 c-18 -7 -18 -8 -2 -14 29 -12 46 -8 40 8 -7 17 -10 17
-38 6z"/>
<path d="M4410 4541 c0 -6 4 -13 10 -16 6 -3 7 1 4 9 -7 18 -14 21 -14 7z"/>
<path d="M8465 4541 c-24 -5 -15 -8 47 -14 43 -4 97 -9 120 -12 l43 -6 -29 17
c-33 18 -134 27 -181 15z"/>
<path d="M6580 4501 c0 -16 4 -32 9 -36 5 -3 9 8 9 25 -1 40 -18 50 -18 11z"/>
<path d="M7980 4513 c-8 -2 -22 -7 -30 -10 -23 -9 -28 -10 -56 -12 -20 -1 -25
-5 -22 -23 2 -19 9 -23 33 -21 46 3 95 -7 95 -18 0 -7 -12 -8 -31 -4 -20 5
-29 3 -25 -3 3 -5 33 -12 67 -16 34 -4 93 -19 133 -33 56 -21 82 -37 122 -80
28 -29 56 -53 62 -53 7 0 14 -11 18 -25 4 -17 25 -35 63 -57 31 -17 69 -42 84
-55 39 -32 49 -29 69 18 10 22 21 38 26 35 5 -3 12 34 15 82 3 54 13 109 27
144 33 87 25 98 -68 98 -75 0 -77 -1 -94 -31 -23 -39 -23 -49 1 -49 24 0 120
-98 121 -123 0 -10 -5 -23 -10 -30 -6 -7 -19 -24 -31 -39 -25 -34 -46 -36 -60
-5 -5 12 -26 32 -44 45 -19 12 -35 27 -35 32 0 6 -10 10 -22 10 -13 0 -34 9
-48 20 -14 11 -32 20 -40 20 -16 1 -50 23 -50 34 0 8 51 -4 65 -15 6 -4 15 2
21 16 9 18 9 22 -1 19 -10 -4 -11 5 -3 43 6 26 15 51 20 54 5 3 -10 11 -33 18
-30 9 -45 9 -52 2 -6 -6 -22 -11 -35 -11 l-25 0 26 -20 c14 -11 30 -20 36 -20
19 0 33 -50 20 -66 -10 -12 -15 -12 -30 2 -18 16 -19 16 -19 0 0 -9 -4 -15 -9
-11 -6 3 -8 14 -6 25 3 14 -2 20 -16 20 -10 0 -19 7 -19 15 0 9 -7 18 -15 21
-11 4 -12 11 -5 24 8 15 2 18 -60 24 -37 3 -76 3 -84 0 -9 -3 -16 -1 -16 5 0
12 -6 13 -30 4z m24 -40 c23 -16 43 -31 44 -35 2 -5 12 -8 23 -8 25 0 25 30
-1 37 -16 4 -18 8 -9 19 17 20 22 18 75 -29 27 -24 58 -47 68 -50 30 -12 14
-16 -31 -10 -26 3 -40 10 -36 16 4 7 -7 8 -30 4 -40 -6 -84 10 -106 41 -9 12
-21 17 -37 14 -23 -4 -32 7 -17 21 10 11 14 9 57 -20z"/>
<path d="M7713 4483 c9 -2 23 -2 30 0 6 3 -1 5 -18 5 -16 0 -22 -2 -12 -5z"/>
<path d="M8698 4483 c7 -3 16 -2 19 1 4 3 -2 6 -13 5 -11 0 -14 -3 -6 -6z"/>
<path d="M4477 4414 c3 -8 11 -14 19 -14 21 0 17 17 -5 23 -14 3 -18 1 -14 -9z"/>
<path d="M2441 4398 c0 -7 4 -22 9 -33 8 -18 9 -17 9 7 1 15 -3 30 -9 33 -5 3
-10 0 -9 -7z"/>
<path d="M4703 4373 c-21 -8 -15 -22 7 -16 11 3 20 9 20 14 0 10 -8 10 -27 2z"/>
<path d="M4755 4221 c-3 -5 -2 -12 3 -15 5 -3 9 1 9 9 0 17 -3 19 -12 6z"/>
<path d="M6500 4181 c0 -10 109 -101 121 -101 5 0 6 7 3 15 -4 8 -11 15 -18
15 -13 0 -48 54 -41 64 3 3 2 4 -1 2 -3 -2 -19 0 -35 4 -16 5 -29 5 -29 1z"/>
<path d="M5126 4153 c2 -7 -1 -15 -6 -18 -6 -4 -10 -2 -10 2 0 15 -54 7 -58
-8 -3 -11 -1 -11 7 1 6 8 11 11 11 5 0 -5 27 -10 60 -11 40 -1 59 3 57 10 -2
6 -14 10 -27 8 -15 -3 -20 0 -15 9 5 7 4 10 -3 5 -5 -3 -12 -3 -15 1 -2 5 -2
3 -1 -4z"/>
<path d="M5220 4151 c0 -5 5 -13 10 -16 6 -3 10 -2 10 4 0 5 -4 13 -10 16 -5
3 -10 2 -10 -4z"/>
<path d="M5851 4143 c0 -11 3 -13 6 -5 2 6 10 9 15 6 7 -4 8 -2 4 4 -11 18
-26 14 -25 -5z"/>
<path d="M5079 4096 c4 -6 11 -18 14 -26 3 -9 6 -5 6 11 1 16 -4 26 -14 26 -9
0 -11 -4 -6 -11z"/>
<path d="M5394 4092 c4 -7 2 -12 -4 -12 -6 0 -8 -4 -5 -10 3 -5 1 -10 -4 -10
-6 0 -11 5 -11 11 0 5 -5 7 -11 3 -11 -6 6 -23 23 -24 15 0 29 38 16 46 -7 4
-8 3 -4 -4z"/>
<path d="M5000 4069 c0 -5 5 -7 10 -4 6 3 10 8 10 11 0 2 -4 4 -10 4 -5 0 -10
-5 -10 -11z"/>
<path d="M8650 4013 c0 -6 8 -17 18 -24 16 -13 16 -13 2 6 -8 11 -16 22 -17
24 -2 2 -3 0 -3 -6z"/>
<path d="M6588 3868 c9 -9 15 -9 24 0 9 9 7 12 -12 12 -19 0 -21 -3 -12 -12z"/>
<path d="M8606 3808 c4 -13 15 -34 25 -47 11 -13 19 -30 19 -38 0 -8 16 -31
35 -51 20 -20 51 -55 70 -76 l35 -40 -10 34 c-5 18 -25 46 -44 62 -39 32 -96
111 -96 133 0 25 -12 45 -27 45 -10 0 -12 -6 -7 -22z"/>
<path d="M8808 3403 c7 -3 16 -2 19 1 4 3 -2 6 -13 5 -11 0 -14 -3 -6 -6z"/>
<path d="M8884 3359 c-3 -6 -2 -14 4 -18 6 -3 13 -24 15 -46 8 -66 29 -159 38
-170 5 -5 9 -26 9 -47 0 -35 2 -38 28 -38 15 0 35 9 45 20 9 11 26 20 37 20
23 0 26 22 6 40 -8 6 -22 34 -32 62 -16 49 -68 157 -82 169 -15 13 -61 19 -68
8z"/>
<path d="M9020 3257 c18 -26 48 -56 67 -67 18 -10 33 -18 33 -17 0 5 -95 102
-115 117 -11 9 -6 -4 15 -33z"/>
<path d="M2857 2979 c-31 -18 -118 -112 -142 -154 -51 -86 -76 -278 -41 -313
15 -15 16 -13 16 27 0 38 5 48 41 80 23 20 57 51 77 69 31 29 42 33 72 28 19
-3 54 -9 77 -12 28 -4 40 -11 36 -18 -4 -6 2 -4 12 4 11 9 16 10 11 3 -5 -10
2 -13 28 -13 33 0 156 -61 164 -82 2 -4 10 -8 17 -8 8 0 16 -9 20 -19 3 -11
22 -37 41 -58 19 -21 37 -49 40 -63 9 -36 33 -60 58 -58 18 2 21 7 18 30 -5
36 21 48 50 22 l21 -19 -6 53 c-3 28 -4 52 -2 52 2 0 11 -12 19 -27 l15 -28 0
25 c1 63 -31 99 -56 64 -9 -13 -13 -14 -13 -4 0 7 7 22 17 32 15 17 14 26 -15
139 -33 126 -70 200 -120 239 -23 19 -40 20 -231 20 -124 0 -213 -5 -224 -11z"/>
<path d="M3037 2506 c-40 -15 -107 -62 -107 -75 0 -5 7 -14 15 -21 8 -7 15
-21 15 -32 0 -15 5 -19 20 -15 10 3 20 1 22 -4 2 -5 27 -12 57 -16 37 -4 52
-3 48 4 -4 6 4 14 17 17 28 7 83 84 64 90 -7 3 -31 7 -53 11 -46 8 -34 18 35
31 44 7 44 8 15 15 -49 11 -107 9 -148 -5z m50 -82 c-3 -3 -12 -4 -19 -1 -8 3
-5 6 6 6 11 1 17 -2 13 -5z"/>
<path d="M2695 2440 c-4 -12 0 -26 9 -36 21 -20 39 -54 33 -61 -7 -6 25 -38
51 -52 14 -8 28 -5 58 11 46 24 40 18 48 44 10 34 -33 77 -96 97 -72 22 -95
22 -103 -3z"/>
<path d="M3482 2420 c-17 -56 -14 -74 4 -22 8 24 14 48 12 53 -2 5 -9 -9 -16
-31z"/>
<path d="M3420 2386 c0 -7 -7 -19 -15 -26 -8 -7 -15 -24 -15 -38 0 -23 13 -24
16 -1 1 5 2 12 3 16 0 4 7 -1 14 -11 11 -15 13 -11 15 28 1 25 -3 46 -8 46 -6
0 -10 -6 -10 -14z"/>
<path d="M3390 2265 c-9 -82 -12 -104 -20 -129 -14 -40 -12 -79 3 -96 10 -12
9 -12 -5 -1 -19 14 -29 8 -121 -88 -18 -19 -35 -27 -44 -24 -12 5 -14 3 -8 -7
5 -8 4 -11 -2 -7 -6 4 -30 0 -53 -8 -23 -8 -59 -15 -79 -15 -34 -1 -35 -2 -17
-15 52 -39 193 0 280 77 58 51 105 129 106 173 0 16 4 14 21 -12 22 -35 76
-73 103 -73 18 0 22 25 6 35 -6 4 -28 30 -49 58 -52 71 -120 144 -121 132z
m17 -155 c1 -10 -2 -22 -9 -26 -6 -4 -8 -3 -4 4 3 6 2 13 -3 17 -6 3 -8 12 -4
21 7 18 16 11 20 -16z"/>
<path d="M7135 2220 c-11 -5 -34 -9 -51 -9 -21 -1 -48 -15 -82 -41 -44 -36
-53 -48 -72 -111 -17 -58 -19 -77 -10 -102 16 -48 53 -97 72 -97 10 0 15 -5
12 -13 -3 -8 6 -13 25 -15 26 -2 29 1 27 21 -1 12 -5 27 -7 32 -3 6 -5 19 -5
30 1 17 9 20 49 23 36 2 47 -1 47 -13 0 -8 -7 -15 -15 -15 -8 0 -15 -9 -15
-20 0 -17 5 -19 33 -14 24 4 28 3 17 -5 -13 -9 -13 -11 2 -11 21 0 47 42 29
48 -16 5 -14 22 4 22 8 0 14 -3 14 -7 -3 -19 2 -33 11 -33 15 0 12 21 -6 42
-16 16 -15 18 2 24 11 3 34 12 52 20 37 16 42 17 42 7 0 -5 -18 -16 -40 -26
-35 -17 -38 -20 -25 -34 8 -8 15 -20 15 -27 0 -8 6 -19 14 -26 21 -17 9 -37
-27 -45 l-32 -7 30 -11 c27 -9 28 -11 10 -18 -11 -4 -34 -8 -52 -8 -17 -1 -34
-5 -37 -10 -7 -11 28 -21 77 -21 35 0 37 -2 27 -20 -9 -18 -8 -20 15 -20 46 0
24 -38 -27 -46 -38 -7 -114 25 -124 51 -3 8 -15 17 -25 20 -11 4 -24 18 -29
31 -8 21 -30 34 -30 18 0 -9 83 -106 113 -132 15 -13 27 -30 27 -38 0 -8 13
-17 30 -21 17 -3 33 -10 36 -14 11 -19 40 -7 75 31 l36 39 -23 22 c-28 26 -29
40 -9 79 9 16 18 51 22 76 6 47 6 47 -20 40 -27 -6 -57 1 -57 15 0 4 7 6 15 3
8 -4 21 -1 29 5 7 6 16 8 19 4 4 -3 7 6 7 20 0 17 5 27 15 27 8 0 15 5 15 10
0 6 -4 10 -9 10 -4 0 -11 29 -14 65 -4 36 -14 80 -24 97 -23 40 -63 77 -84 78
-9 0 -33 7 -52 15 -20 8 -38 15 -39 14 -2 0 -12 -4 -23 -9z m174 -281 c-16
-10 -23 -4 -14 10 3 6 11 8 17 5 6 -4 5 -9 -3 -15z m-2 -35 c-3 -3 -12 -4 -19
-1 -8 3 -5 6 6 6 11 1 17 -2 13 -5z m33 -64 c0 -5 -4 -10 -9 -10 -6 0 -13 5
-16 10 -3 6 1 10 9 10 9 0 16 -4 16 -10z m-5 -60 c-4 -12 -9 -19 -12 -17 -3 3
-2 15 2 27 4 12 9 19 12 17 3 -3 2 -15 -2 -27z m-55 -10 c0 -5 -12 -10 -27
-10 -22 0 -25 2 -13 10 20 13 40 13 40 0z"/>
<path d="M3004 2186 c-17 -6 -38 -17 -47 -24 -10 -9 -25 -11 -39 -6 -21 6 -21
5 -9 -10 21 -25 49 -38 65 -29 16 10 70 73 65 77 -2 1 -18 -3 -35 -8z"/>
<path d="M2853 2133 c-16 -6 -17 -33 -3 -33 11 0 26 28 19 34 -2 2 -10 1 -16
-1z"/>
<path d="M3095 2125 c-22 -7 -79 -19 -128 -25 l-87 -12 32 -36 c36 -42 75 -65
83 -51 4 5 -4 13 -17 18 l-23 10 25 0 c50 2 180 76 180 103 0 10 -15 9 -65 -7z
m5 -23 c0 -13 -12 -22 -22 -16 -10 6 -1 24 13 24 5 0 9 -4 9 -8z m-30 -21 c0
-13 -49 -31 -85 -31 -19 0 -35 4 -35 9 0 11 39 26 46 18 3 -3 17 1 31 8 26 14
43 12 43 -4z"/>
<path d="M2761 2088 c-35 -37 -41 -83 -14 -103 11 -8 17 -25 16 -49 -1 -20 3
-36 8 -36 5 0 16 -15 25 -32 15 -30 18 -31 24 -13 7 20 7 20 12 0 l6 -20 1 20
c1 16 3 17 11 5 5 -8 12 -11 16 -7 4 3 1 14 -6 22 -33 39 -58 156 -48 219 5
32 -18 29 -51 -6z"/>
<path d="M2892 1987 c6 -23 15 -46 19 -51 5 -6 9 -23 9 -40 0 -16 3 -26 7 -23
8 9 73 -64 74 -83 0 -8 7 2 15 22 15 36 15 39 -7 75 -25 42 -84 111 -110 130
-15 12 -16 9 -7 -30z"/>
<path d="M3030 2010 c-9 -6 -10 -10 -3 -10 6 0 15 5 18 10 8 12 4 12 -15 0z"/>
<path d="M7060 1900 c0 -5 9 -10 20 -10 11 0 20 5 20 10 0 6 -9 10 -20 10 -11
0 -20 -4 -20 -10z"/>
<path d="M7157 1803 c-4 -3 -7 -11 -7 -17 0 -6 5 -5 12 2 6 6 9 14 7 17 -3 3
-9 2 -12 -2z"/>
<path d="M7075 1650 c-3 -5 -1 -10 4 -10 6 0 11 5 11 10 0 6 -2 10 -4 10 -3 0
-8 -4 -11 -10z"/>
<path d="M7622 1380 c0 -14 2 -19 5 -12 2 6 2 18 0 25 -3 6 -5 1 -5 -13z"/>
<path d="M7624 1293 c-2 -34 21 -158 36 -197 9 -24 8 -32 -6 -47 -10 -11 -25
-19 -36 -19 -10 0 -18 -5 -18 -11 0 -8 -5 -7 -15 1 -11 9 -14 22 -9 46 l6 34
-318 0 c-291 0 -317 1 -296 16 12 8 28 12 35 8 6 -4 1 5 -12 19 -18 20 -22 33
-18 56 4 18 1 33 -7 40 -11 9 -14 -2 -19 -56 -4 -38 -9 -87 -12 -111 -4 -38
-2 -44 20 -54 14 -6 25 -15 25 -20 0 -11 -47 -10 -71 2 -26 15 -26 -6 1 -22
27 -17 25 -27 -2 -22 -13 2 -5 -4 17 -15 l40 -20 -39 0 c-32 -1 -37 -3 -26
-16 7 -9 23 -12 43 -9 24 3 27 2 12 -4 -17 -8 -11 -14 44 -41 35 -18 95 -53
132 -78 l69 -46 62 23 c35 13 80 33 100 46 21 13 42 24 48 24 6 0 21 7 33 15
13 8 54 26 92 40 48 17 81 37 106 62 19 21 43 43 52 48 15 9 13 21 -14 125
-17 63 -31 136 -32 162 -2 51 -21 67 -23 21z"/>
<path d="M7501 1234 c0 -12 -7 -36 -15 -54 -16 -39 -10 -70 13 -70 13 0 15 9
13 52 -1 29 -4 62 -6 73 -3 18 -3 18 -5 -1z"/>
<path d="M6781 998 c-1 -20 4 -28 15 -28 12 0 14 4 7 13 -6 6 -13 19 -16 27
-3 9 -6 3 -6 -12z"/>
<path d="M7889 962 c20 -37 3 -92 -38 -129 -20 -18 -39 -32 -43 -33 -5 0 -36
-13 -70 -29 -35 -17 -115 -42 -178 -56 -63 -14 -141 -32 -174 -40 -32 -7 -66
-11 -75 -8 -28 9 27 -27 64 -43 72 -30 140 -21 272 35 128 55 156 60 191 35
22 -15 23 -15 16 11 -5 21 0 33 24 58 17 18 38 51 48 75 16 41 16 45 -1 83
-10 21 -25 45 -33 52 -13 10 -14 9 -3 -11z"/>
<path d="M2865 948 c-3 -13 -1 -36 4 -53 8 -27 9 -25 10 23 1 55 -5 67 -14 30z"/>
<path d="M6610 800 c0 -22 65 -80 108 -96 68 -25 172 -101 172 -125 0 -26 -20
-32 -55 -19 -29 11 -29 11 -10 -9 21 -24 9 -28 -21 -6 -12 8 -24 12 -27 9 -14
-14 -49 11 -69 49 l-21 42 -19 -44 c-25 -54 -18 -84 30 -128 36 -33 155 -85
225 -98 20 -4 40 -11 43 -16 6 -10 -62 -236 -76 -254 -4 -5 -13 -27 -18 -48
l-11 -38 41 3 c39 3 42 5 55 50 12 41 20 51 81 89 37 23 76 48 88 56 18 12 24
11 48 -8 l26 -21 -47 -38 c-27 -20 -61 -45 -78 -54 -16 -8 -46 -29 -65 -46
-30 -26 -32 -30 -13 -30 11 0 27 7 34 16 8 9 44 36 80 61 37 24 72 50 79 58 7
8 17 15 23 15 10 0 89 -58 161 -117 36 -30 75 -45 62 -24 -3 5 -49 41 -101 81
-91 69 -95 73 -79 91 31 34 49 31 128 -18 66 -42 77 -53 87 -88 22 -85 11 -78
108 -71 47 4 114 12 149 17 59 10 62 13 62 39 0 38 45 231 73 315 23 66 42
205 28 205 -3 0 -23 -16 -44 -35 -26 -23 -48 -35 -68 -35 -16 0 -29 -5 -29
-11 0 -9 -20 -10 -67 -6 -44 4 -71 3 -80 -5 -11 -9 -23 -9 -49 1 -19 7 -43 10
-53 6 -12 -4 -23 0 -28 10 -6 11 -24 16 -59 16 -62 1 -202 40 -299 84 -16 8
-68 24 -115 36 -102 26 -141 44 -134 62 9 26 -23 40 -78 35 -57 -6 -127 13
-141 37 -9 17 -37 20 -37 5z m582 -484 c19 -13 18 -14 -8 -35 -15 -11 -29 -21
-33 -21 -3 0 -26 19 -51 41 l-45 41 59 -6 c32 -4 67 -13 78 -20z m59 5 c-8 -5
-20 -7 -28 -4 -21 8 -15 13 15 13 20 0 23 -3 13 -9z m85 -27 l-39 -35 -21 21
c-21 21 -21 21 -2 36 11 8 38 14 60 14 l41 0 -39 -36z m-228 -30 l23 -22 -53
-32 c-29 -18 -63 -39 -75 -47 l-23 -15 15 48 c8 27 20 66 26 87 l10 39 27 -18
c15 -9 37 -27 50 -40z m327 -28 c8 -38 14 -70 13 -72 -2 -1 -31 16 -66 39
l-63 42 41 39 c23 21 45 34 50 30 5 -5 16 -40 25 -78z m-177 31 l22 -23 -31
-23 c-30 -22 -31 -22 -52 -4 -12 10 -24 19 -27 21 -5 3 51 51 61 52 3 0 15
-10 27 -23z"/>
</g>
</svg>
