<svg width="50" height="32" viewBox="0 0 50 32" fill="none" xmlns="http://www.w3.org/2000/svg">
<path d="M39.6912 26.4133V14.9535L26.587 18.643C26.0692 18.7879 25.536 18.8604 25.0027 18.8604C24.4694 18.8604 23.9413 18.7879 23.4184 18.643L10.3142 14.9535V26.4133C10.3142 29.3779 16.8896 31.7845 25.0026 31.7845C33.1157 31.7845 39.6912 29.3852 39.6912 26.4133Z" fill="#08346F"/>
<path d="M48.9632 6.57433L26.2808 0.181211C25.8614 0.0652359 25.4317 0 25.002 0C24.5722 0 24.1477 0.0579874 23.7231 0.181211L1.04071 6.57433C-0.346902 6.96574 -0.346902 9.73464 1.04071 10.1261L10.3135 12.7355L23.7231 16.5119C24.1426 16.6279 24.5722 16.6931 25.002 16.6931C25.4317 16.6931 25.8562 16.6351 26.2808 16.5119L39.6904 12.7355L43.8634 11.5612V25.1447C43.3716 25.7464 43.0609 26.638 43.0609 27.6237C43.0609 29.4431 44.1171 30.9217 45.4166 30.9217C46.7162 30.9217 47.7724 29.4431 47.7724 27.6237C47.7724 26.6307 47.4617 25.7464 46.9699 25.1447V10.6841L48.9632 10.1261C50.3456 9.73472 50.3456 6.96574 48.9632 6.57433Z" fill="#08346F"/>
</svg>
