<svg width="27" height="27" viewBox="0 0 27 27" fill="none" xmlns="http://www.w3.org/2000/svg">
<g clip-path="url(#clip0)">
<rect width="27" height="27" fill="white"/>
<path d="M25.5098 27.0002C26.3327 27.0002 27 26.333 27 25.51V1.49021C27 0.667136 26.3327 4.57764e-05 25.5098 4.57764e-05H1.49017C0.666984 4.57764e-05 0 0.667136 0 1.49021V25.51C0 26.333 0.666984 27.0002 1.49017 27.0002H25.5098Z" fill="#395185"/>
<path d="M18.6295 27.0001V16.5443H22.1392L22.6646 12.4695H18.6295V9.8678C18.6295 8.68803 18.9572 7.88404 20.649 7.88404L22.8068 7.88309V4.23862C22.4334 4.18894 21.1526 4.07799 19.6626 4.07799C16.5514 4.07799 14.4216 5.97695 14.4216 9.46438V12.4695H10.903V16.5443H14.4216V27.0001H18.6295Z" fill="white"/>
</g>
<defs>
<clipPath id="clip0">
<rect width="27" height="27" fill="white"/>
</clipPath>
</defs>
</svg>
