<svg width="21" height="20" viewBox="0 0 21 20" fill="none" xmlns="http://www.w3.org/2000/svg">
<path d="M10.5835 15.4583L10.5002 15.5417L10.4085 15.4583C6.4502 11.8667 3.83354 9.49167 3.83354 7.08333C3.83354 5.41667 5.08354 4.16667 6.7502 4.16667C8.03354 4.16667 9.28354 5 9.7252 6.13333H11.2752C11.7169 5 12.9669 4.16667 14.2502 4.16667C15.9169 4.16667 17.1669 5.41667 17.1669 7.08333C17.1669 9.49167 14.5502 11.8667 10.5835 15.4583ZM14.2502 2.5C12.8002 2.5 11.4085 3.175 10.5002 4.23333C9.59187 3.175 8.2002 2.5 6.7502 2.5C4.18354 2.5 2.16687 4.50833 2.16687 7.08333C2.16687 10.225 5.0002 12.8 9.29187 16.6917L10.5002 17.7917L11.7085 16.6917C16.0002 12.8 18.8335 10.225 18.8335 7.08333C18.8335 4.50833 16.8169 2.5 14.2502 2.5Z" fill="#082A6F"/>
</svg>
