<svg width="119" height="24" viewBox="0 0 119 24" fill="none" xmlns="http://www.w3.org/2000/svg">
<path d="M24.6086 19.9444V11.2913L16.484 14.0771C16.163 14.1866 15.8324 14.2413 15.5018 14.2413C15.1711 14.2413 14.8437 14.1866 14.5195 14.0771L6.3949 11.2913V19.9444C6.3949 22.1829 10.4716 24.0001 15.5017 24.0001C20.5318 24.0001 24.6086 22.1884 24.6086 19.9444Z" fill="#082A6F"/>
<path d="M30.3572 4.96418L16.2941 0.13683C16.034 0.0492587 15.7676 0 15.5012 0C15.2348 0 14.9716 0.0437855 14.7083 0.13683L0.645238 4.96418C-0.215079 5.25974 -0.215079 7.3505 0.645238 7.64605L6.39439 9.6164L14.7083 12.4679C14.9684 12.5555 15.2348 12.6048 15.5012 12.6048C15.7676 12.6048 16.0309 12.561 16.2941 12.4679L24.608 9.6164L27.1953 8.72974V18.9864C26.8904 19.4408 26.6978 20.114 26.6978 20.8583C26.6978 22.2321 27.3526 23.3486 28.1583 23.3486C28.9641 23.3486 29.6189 22.2321 29.6189 20.8583C29.6189 20.1084 29.4263 19.4408 29.1213 18.9864V8.06743L30.3572 7.64605C31.2143 7.35055 31.2143 5.25974 30.3572 4.96418Z" fill="#082A6F"/>
<path d="M40.0334 18C39.6854 18 39.4154 17.904 39.2234 17.712C39.0314 17.52 38.9354 17.256 38.9354 16.92V6.372C38.9354 6.024 39.0374 5.748 39.2414 5.544C39.4574 5.328 39.7394 5.22 40.0874 5.22C40.4474 5.22 40.7294 5.328 40.9334 5.544C41.1494 5.748 41.2574 6.024 41.2574 6.372V16.092H46.3154C47.0354 16.092 47.3954 16.41 47.3954 17.046C47.3954 17.682 47.0354 18 46.3154 18H40.0334ZM55.635 15.588C55.839 15.588 56.001 15.666 56.121 15.822C56.253 15.978 56.319 16.188 56.319 16.452C56.319 16.824 56.097 17.136 55.653 17.388C55.245 17.616 54.783 17.802 54.267 17.946C53.751 18.078 53.259 18.144 52.791 18.144C51.375 18.144 50.253 17.736 49.425 16.92C48.597 16.104 48.183 14.988 48.183 13.572C48.183 12.672 48.363 11.874 48.723 11.178C49.083 10.482 49.587 9.942 50.235 9.558C50.895 9.174 51.639 8.982 52.467 8.982C53.259 8.982 53.949 9.156 54.537 9.504C55.125 9.852 55.581 10.344 55.905 10.98C56.229 11.616 56.391 12.366 56.391 13.23C56.391 13.746 56.163 14.004 55.707 14.004H50.397C50.469 14.832 50.703 15.444 51.099 15.84C51.495 16.224 52.071 16.416 52.827 16.416C53.211 16.416 53.547 16.368 53.835 16.272C54.135 16.176 54.471 16.044 54.843 15.876C55.203 15.684 55.467 15.588 55.635 15.588ZM52.521 10.566C51.909 10.566 51.417 10.758 51.045 11.142C50.685 11.526 50.469 12.078 50.397 12.798H54.465C54.441 12.066 54.261 11.514 53.925 11.142C53.589 10.758 53.121 10.566 52.521 10.566ZM62.6805 16.434C63.2805 16.47 63.5805 16.74 63.5805 17.244C63.5805 17.532 63.4605 17.754 63.2205 17.91C62.9925 18.054 62.6625 18.114 62.2305 18.09L61.7445 18.054C59.7285 17.91 58.7205 16.83 58.7205 14.814V10.89H57.8205C57.4965 10.89 57.2445 10.818 57.0645 10.674C56.8965 10.53 56.8125 10.32 56.8125 10.044C56.8125 9.768 56.8965 9.558 57.0645 9.414C57.2445 9.27 57.4965 9.198 57.8205 9.198H58.7205V7.542C58.7205 7.218 58.8225 6.96 59.0265 6.768C59.2305 6.576 59.5065 6.48 59.8545 6.48C60.1905 6.48 60.4605 6.576 60.6645 6.768C60.8685 6.96 60.9705 7.218 60.9705 7.542V9.198H62.5005C62.8245 9.198 63.0705 9.27 63.2385 9.414C63.4185 9.558 63.5085 9.768 63.5085 10.044C63.5085 10.32 63.4185 10.53 63.2385 10.674C63.0705 10.818 62.8245 10.89 62.5005 10.89H60.9705V14.976C60.9705 15.864 61.3785 16.338 62.1945 16.398L62.6805 16.434ZM73.9957 18.09C73.6357 18.09 73.3477 17.988 73.1317 17.784C72.9277 17.568 72.8257 17.286 72.8257 16.938V7.218H69.5497C68.8297 7.218 68.4697 6.9 68.4697 6.264C68.4697 5.628 68.8297 5.31 69.5497 5.31H78.4237C79.1437 5.31 79.5037 5.628 79.5037 6.264C79.5037 6.9 79.1437 7.218 78.4237 7.218H75.1477V16.938C75.1477 17.286 75.0397 17.568 74.8237 17.784C74.6197 17.988 74.3437 18.09 73.9957 18.09ZM86.2381 9.018C86.5861 9.018 86.8621 9.114 87.0661 9.306C87.2701 9.498 87.3721 9.756 87.3721 10.08V17.064C87.3721 17.376 87.2641 17.628 87.0481 17.82C86.8441 18.012 86.5741 18.108 86.2381 18.108C85.9141 18.108 85.6561 18.018 85.4641 17.838C85.2721 17.658 85.1761 17.412 85.1761 17.1V16.65C84.9001 17.13 84.5281 17.502 84.0601 17.766C83.5921 18.018 83.0641 18.144 82.4761 18.144C80.3161 18.144 79.2361 16.932 79.2361 14.508V10.08C79.2361 9.756 79.3381 9.498 79.5421 9.306C79.7461 9.114 80.0161 9.018 80.3521 9.018C80.7001 9.018 80.9761 9.114 81.1801 9.306C81.3841 9.498 81.4861 9.756 81.4861 10.08V14.526C81.4861 15.15 81.6121 15.612 81.8641 15.912C82.1161 16.212 82.5121 16.362 83.0521 16.362C83.6761 16.362 84.1741 16.158 84.5461 15.75C84.9301 15.33 85.1221 14.778 85.1221 14.094V10.08C85.1221 9.756 85.2241 9.498 85.4281 9.306C85.6321 9.114 85.9021 9.018 86.2381 9.018ZM94.2859 16.434C94.8859 16.47 95.1859 16.74 95.1859 17.244C95.1859 17.532 95.0659 17.754 94.8259 17.91C94.5979 18.054 94.2679 18.114 93.8359 18.09L93.3499 18.054C91.3339 17.91 90.3259 16.83 90.3259 14.814V10.89H89.4259C89.1019 10.89 88.8499 10.818 88.6699 10.674C88.5019 10.53 88.4179 10.32 88.4179 10.044C88.4179 9.768 88.5019 9.558 88.6699 9.414C88.8499 9.27 89.1019 9.198 89.4259 9.198H90.3259V7.542C90.3259 7.218 90.4279 6.96 90.6319 6.768C90.8359 6.576 91.1119 6.48 91.4599 6.48C91.7959 6.48 92.0659 6.576 92.2699 6.768C92.4739 6.96 92.5759 7.218 92.5759 7.542V9.198H94.1059C94.4299 9.198 94.6759 9.27 94.8439 9.414C95.0239 9.558 95.1139 9.768 95.1139 10.044C95.1139 10.32 95.0239 10.53 94.8439 10.674C94.6759 10.818 94.4299 10.89 94.1059 10.89H92.5759V14.976C92.5759 15.864 92.9839 16.338 93.7999 16.398L94.2859 16.434ZM100.372 18.144C99.4725 18.144 98.6805 17.958 97.9965 17.586C97.3245 17.214 96.8025 16.68 96.4305 15.984C96.0585 15.288 95.8725 14.478 95.8725 13.554C95.8725 12.63 96.0585 11.826 96.4305 11.142C96.8025 10.446 97.3245 9.912 97.9965 9.54C98.6805 9.168 99.4725 8.982 100.372 8.982C101.272 8.982 102.058 9.168 102.73 9.54C103.414 9.912 103.936 10.446 104.296 11.142C104.668 11.826 104.854 12.63 104.854 13.554C104.854 14.478 104.668 15.288 104.296 15.984C103.936 16.68 103.414 17.214 102.73 17.586C102.058 17.958 101.272 18.144 100.372 18.144ZM100.354 16.398C101.086 16.398 101.644 16.158 102.028 15.678C102.412 15.198 102.604 14.49 102.604 13.554C102.604 12.63 102.412 11.928 102.028 11.448C101.644 10.956 101.092 10.71 100.372 10.71C99.6525 10.71 99.0945 10.956 98.6985 11.448C98.3145 11.928 98.1225 12.63 98.1225 13.554C98.1225 14.49 98.3145 15.198 98.6985 15.678C99.0825 16.158 99.6345 16.398 100.354 16.398ZM111.626 9.018C111.938 8.994 112.184 9.06 112.364 9.216C112.544 9.372 112.634 9.606 112.634 9.918C112.634 10.242 112.556 10.482 112.4 10.638C112.244 10.794 111.962 10.896 111.554 10.944L111.014 10.998C110.306 11.07 109.784 11.31 109.448 11.718C109.124 12.126 108.962 12.636 108.962 13.248V17.028C108.962 17.376 108.854 17.646 108.638 17.838C108.422 18.018 108.152 18.108 107.828 18.108C107.504 18.108 107.234 18.018 107.018 17.838C106.814 17.646 106.712 17.376 106.712 17.028V10.062C106.712 9.726 106.814 9.468 107.018 9.288C107.234 9.108 107.498 9.018 107.81 9.018C108.122 9.018 108.374 9.108 108.566 9.288C108.758 9.456 108.854 9.702 108.854 10.026V10.746C109.082 10.218 109.418 9.81 109.862 9.522C110.318 9.234 110.822 9.072 111.374 9.036L111.626 9.018Z" fill="#082A6F"/>
</svg>
