<svg width="20" height="20" viewBox="0 0 20 20" fill="none" xmlns="http://www.w3.org/2000/svg">
<path d="M3.33335 4.99996V16.6666H15V18.3333H2.50002C2.00002 18.3333 1.66669 18 1.66669 17.5V4.99996H3.33335ZM6.66669 1.66663H16.6667C17.5917 1.66663 18.3334 2.41663 18.3334 3.33329V13.3333C18.3334 14.2583 17.5917 15 16.6667 15H6.66669C5.75002 15 5.00002 14.2583 5.00002 13.3333V3.33329C5.00002 2.41663 5.75002 1.66663 6.66669 1.66663ZM13.5834 11.0833L13.25 8.91663L14.8334 7.33329L12.6667 6.99996L11.6667 4.99996L10.6667 6.99996L8.50002 7.33329L10.0834 8.83329L9.66669 11L11.6667 9.99996L13.5834 11.0833Z" fill="#082A6F"/>
</svg>
